/* XPM */
static char *_0d5f3a6f9404a2394a6ff9534a49660LP49a4d8aV9w8wCE[] = {
/* columns rows colors chars-per-pixel */
"64 64 223 2 ",
"   c None",
".  c black",
"X  c #3D1402",
"o  c #3C1604",
"O  c #3D1E1A",
"+  c #321F23",
"@  c #38292A",
"#  c #2B2736",
"$  c #382E37",
"%  c #431602",
"&  c #481702",
"*  c #441904",
"=  c #4C1A02",
"-  c #431E0A",
";  c #491C0D",
":  c #531D03",
">  c #591F03",
",  c #521F08",
"<  c #431F16",
"1  c #44220D",
"2  c #4A230D",
"3  c #4B2605",
"4  c #552104",
"5  c #5C2203",
"6  c #53230A",
"7  c #5C240A",
"8  c #57290F",
"9  c #452512",
"0  c #4A2611",
"q  c #4B2A15",
"w  c #4E2D1A",
"e  c #472618",
"r  c #522C15",
"t  c #562A16",
"y  c #55321B",
"u  c #5A361D",
"i  c #5E391F",
"p  c #543017",
"a  c #533409",
"s  c #632403",
"d  c #692603",
"f  c #642906",
"g  c #6C2903",
"h  c #64290B",
"j  c #6C2C09",
"k  c #64270B",
"l  c #732C03",
"z  c #792F03",
"x  c #712E09",
"c  c #782F08",
"v  c #683809",
"b  c #7B3204",
"n  c #73320C",
"m  c #7C350B",
"M  c #793609",
"N  c #65351C",
"B  c #652E15",
"V  c #432C28",
"C  c #48352D",
"Z  c #5C3B21",
"A  c #593625",
"S  c #4A3A36",
"D  c #533B34",
"F  c #633D22",
"G  c #643926",
"H  c #643E32",
"J  c #6A4309",
"K  c #7A4B0F",
"L  c #6E4811",
"P  c #7D4F11",
"I  c #59453C",
"U  c #544132",
"Y  c #64452A",
"T  c #6C462A",
"R  c #6A4428",
"E  c #734A2D",
"W  c #73482B",
"Q  c #654C33",
"!  c #6A4D33",
"~  c #684E3F",
"^  c #734D32",
"/  c #7C5434",
"(  c #7A5638",
")  c #6D5034",
"_  c #1D2C49",
"`  c #1A3557",
"'  c #2C3A4D",
"]  c #1E3B62",
"[  c #443D43",
"{  c #324456",
"}  c #1B4268",
"|  c #184C78",
" . c #375978",
".. c #2C5374",
"X. c #48464A",
"o. c #584B46",
"O. c #584D55",
"+. c #5B595A",
"@. c #4D5151",
"#. c #62554C",
"$. c #63545A",
"%. c #665957",
"&. c #715442",
"*. c #70655B",
"=. c #5B5C68",
"-. c #4D5D6A",
";. c #675C63",
":. c #5C6366",
">. c #536877",
",. c #4E6772",
"<. c #6A6567",
"1. c #716B69",
"2. c #6B7778",
"3. c #823404",
"4. c #843B0D",
"5. c #835814",
"6. c #824E13",
"7. c #96651C",
"8. c #825937",
"9. c #835C3B",
"0. c #895D3B",
"q. c #865835",
"w. c #83502E",
"e. c #8C623E",
"r. c #86603D",
"t. c #8B6341",
"y. c #916643",
"u. c #956A45",
"i. c #946B4A",
"p. c #996E4A",
"a. c #9B724C",
"s. c #9A734C",
"d. c #9D7451",
"f. c #9F7953",
"g. c #A27653",
"h. c #A47B54",
"j. c #A57D5B",
"k. c #A97E5B",
"l. c #A97E56",
"z. c #A4784E",
"x. c #AB8256",
"c. c #AB835C",
"v. c #AE885E",
"b. c #A6815B",
"n. c #B2865A",
"m. c #B38B5F",
"M. c #AC8562",
"N. c #AD8964",
"B. c #AF8D6B",
"V. c #B28B64",
"C. c #B38D6A",
"Z. c #B48A66",
"A. c #B4916C",
"S. c #BA936C",
"D. c #BD996D",
"F. c #B89266",
"G. c #B69472",
"H. c #BC9673",
"J. c #BD9A74",
"K. c #BC9B79",
"L. c #B58F71",
"P. c #BFA078",
"I. c #C19C74",
"U. c #C29E7A",
"Y. c #C09C6E",
"T. c #C4A076",
"R. c #C5A37B",
"E. c #C8A37D",
"W. c #CBAA7E",
"Q. c #1B5A87",
"!. c #2C678A",
"~. c #49748A",
"^. c #626C81",
"/. c #3D83A2",
"(. c #538793",
"). c #718B95",
"_. c #6C8993",
"`. c #558BA5",
"'. c #4E92A9",
"]. c #6888A5",
"[. c #6A98B7",
"{. c #6A9BAE",
"}. c #72A8B3",
"|. c #3DA0C4",
" X c #50B3D0",
".X c #68AAC5",
"XX c #6EB5CB",
"oX c #CCAB84",
"OX c #CDAD8A",
"+X c #C7A682",
"@X c #D1AE87",
"#X c #CEB28B",
"$X c #CEB083",
"%X c #D2B184",
"&X c #D2B38C",
"*X c #D5B88D",
"=X c #D4B692",
"-X c #D6BA93",
";X c #D9BB94",
":X c #D6BC99",
">X c #DABD9B",
",X c #CCB391",
"<X c #DCC29C",
"1X c #DCC097",
"2X c #E0C69E",
"3X c #DEC5A2",
"4X c #DEC8A6",
"5X c #E0C7A2",
"6X c #E3CAA5",
"7X c #E3CDAA",
"8X c #E6D1AD",
"9X c #E5D3B2",
"0X c #E9D5B4",
"qX c #EBD9B6",
"wX c #ECDBBB",
"eX c #E8D8B8",
"rX c #81C8E2",
"tX c #EDDFC2",
"yX c #EFE1C3",
"uX c #F1E2C3",
"iX c #F2E5C9",
"pX c #F4E9CD",
"aX c #F8EDD3",
/* pixels */
"                                                                                                                                ",
"                                                      H.1X2X2X<X<X1X1XoX                                                        ",
"                                                    A.V.6XqXwXwXwXwXwXW.V.A.                                                    ",
"                                      v.    j.P.=X3X8XR.W.8X8X8X7X6X6XT.-X4X<XoXC.      F.                                      ",
"                                  #X6X=Xt.j.OX6XqXqX8XW.Y.1X2X2X2X2X1XD.<XqXqX9X>XH.t.B.9X>XT.                                  ",
"                              R.6XiXiXqXG.d.E.&X1X3X<XT.F.W.W.W.W.W.Y.F.;X<X<X;XoXV.d.<XtXiXwX=X                                ",
"                            J.7XuXwXwX0X-Xs.d.D.R.oXoXY.z.n.n.n.m.m.z.n.W.%XoXT.V.y.J.8XqXwXuXwX=Xj.                            ",
"                          i.H.;X2X8X8X5X<XH.0.s.x.l.x.x.r.w.q.q.7.0.w.p.x.x.l.h.e.f.;X2X6X8X6X>XOXj.                            ",
"                          N.j.M.+X&X;X;X&XU.e.W r.r.e.( Y u u u A u Z ^ 9.e.e./ W v.W.*X;X-X@XD.j.N.                            ",
"                        I.7X:Xb.a.F.Y.S.V.x.s.T u y w q q q q 0 q q q q q w y Y r.z.v.S.D.D.k.s.P.8X&X                          ",
"                      V.>X8X7X*Xx.r.e.u.u.( u q q q 8 6 7 5 f v s 4 4 6 3 0 q q p Y e.u.u.e.u.T.3X8X7XE.                        ",
"                    d.oX;X;X*X*XT.e.E E y q q 0 a l M x t v p V V 6 t 8 v z f a 9 q 0 Y E / c.W.-X*X;X=XC.                      ",
"                  8.C.E.E.U.U.F.x.s.Y 9 q 2 5 g 8 V r _ | { $ Q.!.@ } } C q a v g 3 0 9 w r.h.v.Y.E.E.U.J.i.                    ",
"              Y.j.t.d.c.Z.Z.l.p.e.Z 9 q s g a 9 ` Q.-.X.|.`.:. X'.@.|./.X...| ' 6 f 5 2 q q / u.a.n.Z.Z.j.u.t.D.                ",
"              4X7X+Xc.i.y.y.0.q.y q r f h # { { I /. X#.(..X%.XX(.,.XX@.(. X~.C ' _ w 5 3 0 9 E 0.e.y.y.f.H.:X9X#X              ",
"            *XyXwX8X<XW.b.w./ u 9 6 g h # } !.|.>.I {.{.#.}.%.}.:._.2.:.XX2.Q (./.!.} 9 f 6 9 9 T / u.S.=X6XqXuX7X              ",
"            3XwX7X5X;X@XZ.a.T 9 0 d w $ C S ,.`.XX).#.).*.*.#.;.I <.I ).*.*.{..X'.-.$ @ @ 7 = q q r.x.R.=X>X6X0X0XoX            ",
"          J.3X5X>X=XoXD.g.0.9 q 5 q _ ..~.~.+.o.1.^.^.G H 3.3.x g j N G #.).^.$.I @.,...} # , - 2 Z p.c.R.OX;X>X6X&X            ",
"          H.-X=XoXU.H.j.y.i 9 2 > # ' ..!.`.[.].;.H G 3.3.q.i.1.1.^ n l G Z &.2.].`.`.~. .{ < % 1 9 ( a.V.I.E.OX=XoX            ",
"          M.C.M.M.k.g.r.( 1 0 : < V C D D I o.%.;.H d B 1.[.XXrXrXXX).G s G $.$.+.o.o.S S C O % - 9 Z 9.i.j.M.N.C.V.g.          ",
"            #X,XP.C.s.9.R O 6 ; # ]  .~.~.>.;.$.H > k ;.[.^.^.[.[.[.[.^.t > A O.=.>.>.,. ...] + % 2 q ( e.b.G.+X-X+X            ",
"            eXpXqX5XR.b.R 9 6 ; # ' [ [ O.O.O.;.H > B $.1.1.2.<.1.<.;.;.N s N $.$.:.=.=.-.X.' + % 2 9 t.V.-X8XuXiX:X            ",
"            9XyX9X<XJ.f.u 1 ; = : : > > > > 5 d c d d c 4.3.3.z l l 3.n d d d s > : ; > 4 : % % % 1 - r.v.&X6XqXyX:X            ",
"            :X7X;XoXm.u.u 1 % * & & = = & & & , > & : : & , : & % & , , & & = & % % * = = % X X X 1 1 / f.J.*X3X4X+X            ",
"            U.OXU.S.d.0.y 9 o = : : > : = = > 7 7 : > > > > > & & , 5 : = : : : : = = 4 6 = X * X 1 1 E y.M.I.+XOXA.            ",
"          N.M.M.j.i.9./ p 1 % % & > > > : & > > : > > > > & > & % & 7 7 : 4 & : = % : 4 5 : X % X - 1 T / y.s.k.M.b.            ",
"        =X9X7X>X&X+XN.i.Z 1 * % s 3.3.l d & > > > z 3.3.3.: > & % > 4.c l z : : = = l M z l = % % - 1 ( h.J.OX:X4X9X4X          ",
"        >XpXaXuX8X;XI.h.Z 1 % % > d d d d & 7 > > l z 3.l > s & % > c x d l : : : * d x g s = 3 % - 9 9.c.&X6X0XuXaX9X          ",
"        #XeXtX7X<X&XS.a.i 1 * * : > s s > & s > > s d d s : > & = : h s : 5 : : : % 5 s 5 : % 4 % - 1 / l.E.;X6XeXtX3X          ",
"        J.3X3X=X@XI.l.e.u 1 % 4 > > > > > > d s > > d s > > d & = 4 k 5 5 5 > 5 4 : : 5 5 4 = 4 * - 1 / p.C.E.&X>X6XOX          ",
"        k.U.+XG.V.j.y./ p 1 X = > > s > > > > s s d l d d d > & = h j > 5 s s 5 : > 5 k s : : 4 % - 1 R 8.d.k.C.K.+XL.          ",
"          k.B.M.j.h.t.( y 1 * = & : : : & : > s > > > > > > s & : 4 > & : : : : : = = : : * * = % - 1 T 9.i.j.M.C.M.d.          ",
"            9XwX4X1XD.f.N O o % : > 5 s > & > : : d g d f & > & % : h 5 s s = = : & 5 5 s 4 % * % - 2 8.c.OX<X0XwX<X            ",
"            wXpXqX<XT.f.i 9 % % 5 z z z l = > : s 3.3.z b : s & = 4 3.z b b 4 : : = z n m l : = % - 1 9.V.&X8XuXiX3X            ",
"            7XeX6X;XA.s.i 1 * * > d g l g = s : > 3.z l l : s & = 4 x g l l 4 : : = d x g g : = * * 2 ( x.oX>X9XeX=X            ",
"            ,X>X#XT.x.e.u 1 o = = : > > > : f : = d s s 5 : d & = : 5 > > 4 = > : = : 5 7 > * : = 1 9 E p.S.oX-X<XK.            ",
"            A.K.C.j.y.( y 1 % : : : > s 5 5 g f > d 5 s s > s = : > > 5 s 5 > f k : 4 5 f 4 : : * 1 1 R q.a.N.A.J.b.            ",
"          J.C.N.c.h.t./ y 1 % = : : > s d s 7.6.d d d d s s > & : s s 5 s > 5 6.7.4 > 4 h 7 > : % - 0 T 9.s.b.M.B.A.oX          ",
"        -XyXyX9X3X*XD.a.F 1 o = & & & : = K P P M : : > > : > = = : : : : & v 5.K K & = , : * & % - 0 9.c.oX<X8XwXyX4X          ",
"        1XpXpXwX8X1XT.g.F 9 * % : s d d 5 5.a L P s d l g = > & = : g g d 5 L L a 5.: s j j = % % - 0 ( v.@X<XqXiXaX9X          ",
"        OXeXeX7X>X%XZ.u.i 2 o * > g l z d 3 v v 4 l z 3.m : > : : 4 b b z g = v J 3 5 l c c , % % - 3 / l.R.=X2X8XwX>X          ",
"        D.>X>X=X+XJ.l.0.u 1 * * : s d d l & * X : l x l l = > & : : g l g d 3 X X X 5 d x j : = % 1 0 W u.Z.U.OX:X3XOX          ",
"        j.K.H.C.c.g.0./ y 0 * * % = : > 5 4 d 5 = > 4 s 5 = s = : = > > : : 6 4 : * = 4 7 > & : % 1 q R w.p.j.N.L.K.Z.          ",
"          j.G.L.M.j.u./ u 2 * : : > 5 d d d d s 5 s g l d 5 5 = 5 5 s d s 5 f f : : 4 5 h k 7 : % 2 q T r.g.c.A.G.C.            ",
"            eXyX0X2XI.d.F e % & : = : s d d s s > 5 d h s > > & : s 5 s : > h 7 : = : : k k : = % - q 8.c.&X5XqXyX3X            ",
"            eXpX0X5XR.s.N e * % % % & = : : s : = : , > : = > = : = : = & = = 4 = % * * , 6 * & % 2 q q.V.=X8XtXiX<X            ",
"            4X0X5X&XF.u.F 0 % % : s d g g : s : : l b z d & > = = : z l d g 4 4 = % d d n m ; * % 2 q / l.E.:X7XeX#X            ",
"            OX:XOXI.k.0.u q % % : d d z z : s : 5 b m b l = > & : : z z g l 7 4 : % d d m m : % % 3 0 W u.Z.oX=X:XJ.            ",
"            C.L.M.g.e.W y q * % : > 5 g d > d : : l l g d = s & : : g d d h 4 4 = * > > n n : % % 1 q F 8.p.k.C.G.j.            ",
"          R.J.G.N.M.s./ i q * = % & : > > : d > = 5 5 > : = s & 5 : : : = 4 4 4 : % = , 7 8 = = % 2 r W r.f.M.C.G.J.@X          ",
"        :XyXiXwX7X;XJ.a.F q * : : > s d s d s s s d j f s > 5 & 5 5 d d s f g 4 : : , > n n 7 = % 2 r / c.%X2X0XyXpX7X          ",
"        -XiXpXwX7X;XJ.s.F q * * & & : : > > > > : > > : : & : % : : : : = : 4 = & % % & 7 8 = X X 2 r 8.c.@X5X0XuXaX9X          ",
"        oX9X0X6X;XoXV.y.N q * : s d d l l z z l g l g d g d 5 % 4 d d g g f x f s > s k m n k : X 2 r ^ h.U.&X>X8XwX>X          ",
"        H.=X>X=XE.D.h.8.i r * 5 g z b b 3.3.b b b b b z b l d % 5 z M 3.M z M z d g g x 4.m h d % 0 r T u.m.I.OX=X<X+X          ",
"        j.L.L.M.k.p.r.W y r o 5 z l l z z z 3.z l x z z l z d % : z b b z l g g d d f x 4.n g s % 0 r F / u.g.c.B.L.M.          ",
"          j.G.G.A.N.s.( i p o 5 g g g l l z z z l g l d d l g % 4 l l z M g g d 5 s f g m x f 4 X 2 p T r.b.C.A.K.L.            ",
"            9XuX0X;XU.a.F p % > d d d g g z l l l s d s d l g % : d g z l s d 5 5 5 s f M j k : % 0 p 8.Z.@X5XqXtX=X            ",
"            3XeX5X*XC.p.F p o : s d d d d d l l d s 5 s s g g X = d d l d s 5 5 : > 5 s x h > = X 2 y / l.oX1X8X0XOX            ",
"            =X6X;XoXZ.e.F p o : 5 5 5 d d s d d s > > s s d s X * 5 d l d 5 : = = : 5 7 k k : = X 2 t E a.Y.&X<X3XK.            ",
"            oX:XoXY.g.q.u p o X & & = : : : > : : & & & & > 3 o X & : : : % % X X % * * * * o X X 0 u G p.Z.U.&X=XA.            ",
"            S.U.S.l.p./ E ( ^ ^ ^ ^ ^ ( ( ( ( ( 8.9.( r.t.t.t.t.t.t.t.t.0.( ( ( ( ( ( ^ ^ ^ ^ E T ^ ^ W 0.l.Z.H.U.j.            ",
"            &.9.) ! Y A Z ! ! Q Q ! Q Q Q Q Q Q Q Q Q Q Q ) Q ~ Q ~ Q Q Q Q Q ! Q Q Y Q Q Q Q Q Q ! Y Z Z ! ! ) &.)             ",
"                              . . . . . . . . . . . . . . . . . . . . . . . . . . . . . . . . . .                               ",
"                                                                                                                                "
};
