/* XPM */
static char *_7c07c2056eb4663bd9a151da88822e9eN2C2mAW9WkkE7jZ[] = {
/* columns rows colors chars-per-pixel */
"64 64 171 2 ",
"   c #0D0126",
".  c #0F0229",
"X  c #0F0D29",
"o  c #12022C",
"O  c #150A2D",
"+  c #190D2E",
"@  c #14102E",
"#  c #1B112E",
"$  c #170330",
"%  c #180331",
"&  c #160F30",
"*  c #1B0E30",
"=  c #1A1532",
"-  c #1D1531",
";  c #27172C",
":  c #211734",
">  c #251D33",
",  c #2B1C32",
"<  c #321D30",
"1  c #3B1D30",
"2  c #2E2A27",
"3  c #2E2B29",
"4  c #312E2B",
"5  c #34312E",
"6  c #38322F",
"7  c #262033",
"8  c #2A2335",
"9  c #2F2935",
"0  c #2D2639",
"q  c #2E2939",
"w  c #312B37",
"e  c #322D3B",
"r  c #3A2F39",
"t  c #363331",
"y  c #393432",
"u  c #3C3835",
"i  c #37323C",
"p  c #39343D",
"a  c #3E3B39",
"s  c #432E35",
"d  c #4B2832",
"f  c #423434",
"g  c #423936",
"h  c #433D3B",
"j  c #543434",
"k  c #533A37",
"l  c #5E3A37",
"z  c #6B2A2E",
"x  c #7B272B",
"c  c #643533",
"v  c #683A37",
"b  c #783732",
"n  c #723A36",
"m  c #743E3A",
"M  c #44413E",
"N  c #3A3542",
"B  c #3F3A41",
"V  c #413C42",
"C  c #37464D",
"Z  c #3B484E",
"A  c #2D4E5C",
"S  c #364B54",
"D  c #3A4A51",
"F  c #2C505F",
"G  c #275366",
"H  c #295263",
"J  c #26556A",
"K  c #464343",
"L  c #494544",
"P  c #4B4846",
"I  c #45414A",
"U  c #49454B",
"Y  c #444B4D",
"T  c #4D4B4B",
"R  c #544444",
"E  c #524D4C",
"W  c #54504F",
"Q  c #4F4B51",
"!  c #524E52",
"~  c #4E5050",
"^  c #555252",
"/  c #595655",
"(  c #5C5857",
")  c #575459",
"_  c #5E5B5A",
"`  c #674946",
"'  c #625E5D",
"]  c #6E5A58",
"[  c #725D5B",
"{  c #63605F",
"}  c #656261",
"|  c #6A6665",
" . c #6B6867",
".. c #6D6A6A",
"X. c #706563",
"o. c #716D6C",
"O. c #74706F",
"+. c #757372",
"@. c #797675",
"#. c #7A7877",
"$. c #7D7B7B",
"%. c #842828",
"&. c #9C2A26",
"*. c #9B2D29",
"=. c #88302F",
"-. c #93322C",
";. c #803631",
":. c #833834",
">. c #A52D27",
",. c #A22F29",
"<. c #B22B24",
"1. c #BB2921",
"2. c #817E7D",
"3. c #82807F",
"4. c #186586",
"5. c #16678A",
"6. c #15688D",
"7. c #136C94",
"8. c #0F739F",
"9. c #0D74A2",
"0. c #097BAD",
"q. c #077EB2",
"w. c #087EB2",
"e. c #0583BB",
"r. c #0386C0",
"t. c #028AC6",
"y. c #008DCB",
"u. c #0094D2",
"i. c #0798D5",
"p. c #0C98D5",
"a. c #1399D6",
"s. c #1B9BD7",
"d. c #1F9CD8",
"f. c #249DD8",
"g. c #2B9FD9",
"h. c #2EA0DA",
"j. c #34A2DB",
"k. c #3CA5DD",
"l. c #40A7DF",
"z. c #42A8DF",
"x. c #45A9E0",
"c. c #4CADE3",
"v. c #50AFE4",
"b. c #54B1E5",
"n. c #59B4E7",
"m. c #5EB6E8",
"M. c #5FB8E9",
"N. c #63BAEA",
"B. c #6ABEED",
"V. c #6DC0EE",
"C. c #71C2EF",
"Z. c #858382",
"A. c #888786",
"S. c #8A8887",
"D. c #8C8B8A",
"F. c #908E8E",
"G. c #92908F",
"H. c #908F90",
"J. c #929190",
"K. c #949393",
"L. c #969595",
"P. c #989797",
"I. c #999897",
"U. c #9C9B9B",
"Y. c #9D9C9C",
"T. c #A09F9F",
"R. c #A1A09F",
"E. c #A4A3A3",
"W. c #A8A7A7",
"Q. c #ABAAAA",
"!. c #ADACAC",
/* pixels */
"o o $ o o o o $ o o . o . . .             . . o o o $ o . + 8 0 0 0 $ $ o $ . $   o . . . .     . .     o   o o o o $ o   o o o ",
"o $ o o o o o o . o . .     .           . . o o # 8 N U ) _ R =.=.R _ ^ U N 8 & o . . . .               o   o o o o $ o O o o $ ",
"o o o o o o o o o o   o                   . O > V ( }  .| P h >.,.u U |  .} ( B > . . .                   o o o o o o o o o o o ",
"o o o o o o $ o o o .   o             7 9 i U / ' } { _ ' g 4 m m 3 g ' { { ' _ ( T i 9 8 .                 o o o o o o o o o   ",
"o o . o o o o $ o o . o           q ^ / / ' { { } { ' ' { ^ y } ' y ^ { _ ' ' ' { } { / / ^ 9           o o o o o o o o o o o o ",
"o o o o o o o $ $ o o o o   X 8 /  .} ' { { { ' } } +.2.A.$.o.o.....$.A.3.+.} { _ { { { { } ..) 7 X       o o o o o o o o o o   ",
"o . . o o o o o $ o o o . ; f / | ' { { ' { o.2.J.Z.R.Q.!.K.D.A.A.D.I.!.!.Y.A.J.2...{ { { { _  .^ 6 #   . o o o o o o o o o o o ",
"o o o o o o o o $ o o o < %.-.u y ( ' { +.@.T.W.!.K.J.U.F.2.I.2.Z.K.I.Y.I.J.I.!.W.I.@.+.} _ ( t M -.%.; . o o o o o o o o o o o ",
"o o o o o o o o o o $ q R -.<.j 4 ( +.F.E.K.P.L.U.T.#.....@.H.Z.A.F.Y.3.D.A.U.W.K.A.P.W.G.O.( 5 k <.-.R q o o o   o o o o o o o ",
"$ $ o o . o . . o o 0 ..U f m ] M } P.Q.Q.E.D.Y.#.Y.Z.K.P.2.+.3.3.O.D.K.R.S.F.T.R.A.E.R.E.K.} L [ n y P ..0 o . o o o . o o o o ",
"o $ o o o o . o o 0 | | K 5 a  .o.A.A.S.F.E.F.U.D.$.{ ( Q Y D S C C Y ~ / { Z.Y.U.F.F.D.L.D.A.O. .y t U  .| q o   . o o o o o o ",
"o $ o o o . o o 8 _ } { ' ( / @.Z.D.K.F.Y.S.$.' ^ S J 6.9.q.e.r.e.e.e.9.5.J S W ' A.U.Q.G.L.Z.Z.@./ ( _ ' } ( > . o o o o o o o ",
"$ o o o o . o # U ' { { { $.Z.F.F.Z.P.D.F.| U G 7.r.y.u.u.u.u.u.u.u.u.u.u.y.e.8.H Y o.D.D.G.@.Z.D.A.$.{ ' { ' K #     o o o o o ",
"o o o $ o . o 8 T { { { $.W.J.3.Y.A.L.@.T G 9.y.u.u.u.u.u.u.u.u.u.u.u.u.u.u.u.u.y.9.H U o.A.F.I.3.P.R.2.} ' { E 9 o     . o o o ",
"o o o o o o X U { { ' +.E.W.S.Y.A.K.| S 6.y.u.u.u.u.u.u.u.u.u.u.u.u.u.u.u.u.u.u.u.y.t.6.Z  .J.S.Z.+.Y.E.O.' { { L O .     o o o ",
"o o o o o O p ' { { o.Z.I.Y.D.!.F.E A w.y.u.u.u.u.u.u.i.p.p.p.a.p.a.p.p.i.u.u.u.u.u.u.u.0.F W K.Y.#.G.K.A.o.' ' ' r o     o o o ",
"o o o o o i E } ' | L.W.F.A.S.I./ J e.u.y.u.u.u.u.p.a.a.s.s.s.s.d.d.s.a.a.p.i.u.u.u.u.u.u.e.G / J.#.@.J.Q.L.| _ } ^ p . o o o o ",
"o . o o q / { { } A.Q.Y.S.J.$./ J r.u.u.u.u.i.i.a.s.s.f.f.f.g.g.f.f.f.f.f.d.s.p.p.u.u.u.u.u.e.G ( 3.I.W.L.Q.Z.} { { / 8 o o o . ",
". . o . ! { { ' | D.W.D.L.E.{ A e.u.u.u.u.i.a.a.s.f.f.g.g.g.g.h.h.h.h.g.h.f.d.s.a.a.u.u.u.u.u.e.A } E.L.K.W.D.| _ { } ! o o . . ",
". o   q  .{ { { D.H.$.2.W.$.S 0.u.u.u.u.i.a.s.f.g.g.h.h.h.j.j.j.j.j.j.j.h.h.h.f.d.s.a.i.u.u.u.u.0.Z #.L.L.S.L.S.} { {  .8 . . o ",
"o o o ^  .{ { O.W.K.O.Z.2.T 7.y.u.u.u.i.a.s.f.h.g.j.j.j.j.k.k.k.k.k.k.j.j.j.h.h.h.s.s.a.i.u.u.u.u.5.T $.F.K.D.W.+.' '  .^ . . o ",
"o o 8 ( h T { D.Q.A.H.W.} G y.u.u.u.i.a.d.f.f.h.j.j.k.k.k.z.k.z.l.l.k.k.k.k.k.h.h.h.h.s.a.i.u.u.u.t.H | Q.A.Z.W.D.{ E h / 7 . o ",
"o o d v 6 2 E Z.K.A.Q.K.Y 9.u.u.u.i.a.s.f.f.h.j.j.k.l.x.z.x.x.x.x.x.x.x.l.k.k.j.h.h.h.a.a.i.u.u.u.u.8.T D.D.E.I.Z.P 2 y v d o o ",
"$ @ x 1.;.L _ 3.A.2.J. .G y.u.u.u.i.a.f.g.h.j.k.k.z.z.x.x.x.c.x.x.c.c.x.x.z.k.k.k.h.h.h.h.a.p.u.u.u.t.H  .D.S.G.A.( E :.1.x & $ ",
"% , c :.m o...A.Z.K.J.T 8.y.u.u.i.a.d.f.g.j.j.k.k.x.x.c.c.v.v.v.b.c.c.c.x.x.x.k.k.k.h.h.f.s.p.i.u.u.u.7.T J.J.3.3.o.o.n ;.c : $ ",
"% 0 E t 4 K #.S.D.L.A.S e.u.u.u.i.s.f.h.j.j.k.x.x.x.c.c.v.v.v.n.b.b.b.v.v.c.x.x.k.k.k.h.g.d.s.i.u.u.u.e.D A.A.J.A.@.h 4 5 ! q $ ",
"% N | a K ( Z.K.K.S.o.J y.u.u.i.a.d.f.h.j.k.k.x.x.c.c.v.b.n.n.n.n.n.b.b.b.c.c.x.k.k.k.j.g.f.d.p.u.u.u.y.J O.I.K.H.2._ h a  .N % ",
"$ I  .} } #.U.K.D.Z.W 5.u.u.u.i.a.f.f.h.j.k.k.x.c.c.v.n.n.n.m.m.N.m.n.n.b.b.c.c.x.k.k.j.h.f.f.a.i.u.u.u.4.W A.3.Z.R.$.' '  .I o ",
"o Q } } ' A.K.3.Z.L.Q 9.u.u.u.i.a.f.g.j.k.k.x.x.c.v.v.n.N.N.N.N.N.N.M.n.n.b.b.c.x.x.k.k.h.h.f.a.i.u.u.u.8.! L.$.$.Q.A.' ' } Q o ",
"$ T ' } } D.D.Z.Y.P.Y w.u.u.u.i.d.f.g.j.k.k.x.x.v.v.n.n.m.N.B.B.B.N.N.m.n.b.b.c.x.x.k.k.j.h.f.s.i.u.u.u.w.Y I.J.Z.!.D.' { { Q $ ",
"- T _ } } Z.S.S.U.Z.D e.u.u.u.a.s.f.h.j.k.x.x.c.v.b.n.m.N.N.B.B.B.B.N.N.m.n.b.c.x.x.k.k.j.h.f.d.p.u.u.u.q.S Z.L.S.K.2.' ' ' N o ",
"$ p _ } } A.I.F.Z.@.S e.u.u.u.a.d.f.h.j.k.k.x.c.c.b.n.N.N.N.V.C.C.V.B.N.m.n.b.c.c.x.k.k.j.h.f.d.p.u.u.y.e.D 2.S.D.K.S.} { ( w o ",
"o q ' } } K.K.P.A.Z.S r.u.u.u.p.s.g.h.j.k.z.z.c.v.n.n.n.N.B.B.B.C.V.B.N.m.n.b.c.c.z.l.k.j.h.f.d.p.u.u.u.e.Z F.D.Z.I.L.} { _ 7 o ",
"$ e ' ' } H.D.2.F.F.D e.u.u.u.a.s.g.h.j.k.z.x.c.v.v.n.N.N.B.B.B.V.B.N.N.m.n.b.c.c.z.l.k.j.h.f.s.p.u.u.u.e.S G.D.D.W.J.} { ( 8 o ",
"o 8 ( } } A.I.D.F.2.Z w.u.u.u.i.s.f.g.j.k.k.x.c.c.v.n.m.N.N.N.B.B.N.N.m.m.b.b.c.c.z.k.k.j.h.d.s.i.u.u.u.0.Y $.Z.D.I.A.{ } ( 8 o ",
"o i ) } } +.K.S.F.L.Q 9.u.u.u.p.s.f.g.j.j.k.z.x.c.v.v.n.n.N.N.N.N.N.M.m.n.b.v.c.z.z.k.j.j.h.d.a.i.u.u.u.8.^ S.+.J.L.@.' } / w o ",
"o N ' } } $.Q.Z.K.E.' 4.u.u.u.i.a.f.f.h.j.k.z.z.c.v.v.v.n.n.N.N.M.m.n.n.b.b.c.x.z.l.k.j.h.f.f.a.i.u.u.u.4.' E.3.I.!.$.} } ' p o ",
"o e } ' ' +.E.Z.2.U. .J y.u.u.u.a.s.g.g.j.k.k.z.x.c.v.v.v.n.n.n.n.n.b.n.b.c.c.x.l.k.k.j.h.h.s.p.u.u.u.y.G | Q.I.$.Y.+._ { } i . ",
"o 7 | { }  .I.D.@.2.o.S e.u.u.u.p.s.f.g.j.j.j.z.z.x.c.v.v.v.b.v.b.b.b.c.c.c.x.x.k.k.j.h.f.f.s.i.u.u.u.e.Z #.D.Z.2.L. ._ _  .> o ",
"o $ | / L / o.A.U.U.D.E 7.u.u.u.u.a.s.f.h.j.j.z.z.z.z.c.c.v.v.v.b.c.c.c.c.x.x.k.k.j.j.h.f.s.p.i.u.u.u.6.^ T.R.I.S.../ P ( } o o ",
"o o ! L 2 4 / Z.A.H.W...J y.u.u.u.p.s.f.f.g.j.k.k.k.z.x.x.c.x.c.c.x.c.x.x.x.k.k.j.j.h.g.f.a.i.u.u.u.t.H O.J.S.2.Z.( 6 3 T T o o ",
"$ o r l c ` o.@.$.A.T.$.U 9.y.u.u.i.p.s.f.g.h.h.j.k.k.z.z.z.x.x.x.x.x.x.x.k.k.j.j.h.f.f.s.p.u.u.u.u.8.Y $.L.R.A.@.o.` v l p o o ",
"o o , *.1.m P | A.$.2.D. .H t.u.u.u.i.a.s.f.g.g.j.k.j.k.k.k.z.k.x.k.k.k.k.j.j.j.h.f.f.d.a.u.u.u.y.t.H o.I.A.D.A.} P n 1.*., o o ",
"$ $ = z n u 5 / D.R.H.L.I.W 6.u.u.u.u.i.a.s.f.g.g.h.j.k.k.k.k.k.k.k.k.j.j.j.j.h.g.f.s.a.i.u.u.u.y.5.^ L.D.U.W.D./ 4 5 n z & o % ",
"$ $ o e ^ a E } D.!.S.A.E.X.C 0.u.u.u.u.p.a.s.d.g.g.g.h.j.j.j.j.j.j.j.j.g.g.f.f.f.a.a.i.u.u.u.u.0.Z o.U.Z.J.!.D.} W a ^ 9 o o o ",
"o o o * _  .' ' o.T.I.D.S.P.| A e.u.u.u.u.i.a.a.s.f.f.g.g.h.h.g.h.g.g.g.g.f.f.s.s.p.i.u.u.u.u.e.A | K.D.$.E.E...' _  ._ . o o o ",
". o o o 0  .' } } $.H.D.Y.L.P.' G e.u.u.u.u.u.i.a.a.s.f.f.f.g.f.f.f.f.f.f.d.s.a.i.u.u.u.u.u.e.H ' P.D.U.D.D.$.} { {  .8 .   o o ",
"o o o o o Q | ' ' { A.T.A.@.U.Z.! G e.u.u.u.u.u.u.p.a.a.s.s.s.s.d.d.s.s.a.p.p.u.u.u.u.u.u.e.G ^ 3.I.Z.K.Q.A.} ' { } T   o o o o ",
"o o o o o : ^ _ } { O.I.W.U.D.I.I.( H 0.u.y.u.u.u.u.u.i.i.p.p.p.p.a.i.i.i.u.u.u.u.u.u.u.0.A _ I.I.D.U.E.Y.o.' } ( / : . . o o o ",
". o o . o . w L { { _ @.Y.D.L.I.J.I.' Z 6.t.u.u.u.u.u.u.u.u.u.i.u.u.u.u.u.u.u.u.u.u.r.5.Z { J.A.Y.U.D.U.@.' } { U 0 o o o o o o ",
". o o . o o o > E } ' } ..L.U.+.Z.J.D.$.E H 8.y.u.u.u.u.u.u.u.u.u.u.u.u.u.u.u.y.t.8.F W 2.S.J.S.Z.Q.K.o.} ' } ! > o o o o . .   ",
". . . . o o o o 8 / } { } #.U.E.Y.D.U.K.K.' T H 7.e.t.u.u.u.u.u.u.u.u.u.u.y.e.7.A Y { L.K.I.D.Y.E.R.$.' ' } ^ 8 o o o o o o . o ",
"o . o . . o o o o N ^ } { ' @.I.S.D.#.Z.J.S.S.o.E C J 5.8.0.e.e.e.e.0.8.4.G S E o.K.D.D.A.F.K.D.I.@.{ ' } ^ i o o $ o o . . . o ",
"o o o o o o o o o > T } ' } } ' ..$.$.D.D.P.D.E.A.$.o.( T Y D S S Z Q P ( +.2.Z.W.U.Z.3.Z.2.3...' { { { { E > o $ o o o o o . o ",
"o o o o . o o o $ o > '  .' ^ 4 K  .#.S.J.Q.D.I.D.D.D.S.2.S.D.$.$.A.Z.$.Y.L.A.3.W.S.P.G.S.#. .K r W '  ._ 7 o o o o o o o o o o ",
"$ $ o o o o o o $ $ $ > _  .y 5 ` X.T ..I.Q.Y.L.G.P.A.J.@.Z.Z.#.S.U.A.@.L.A.E.F.J.Z.E.U. .P } ` 5 u o.( : o o o o o o o o o o o ",
"% $ % o o o o o o $ o o + / E b >.k 5 / +.S.E.D.U.T.I.P.S.T.D.S.S.D.D.A.Z.L.!.Y.Z.D.S.+./ 4 k >.:.E ! + o o o o o o o $ $ $ $ $ ",
"% % $ o o o o o o o o o o - d >.,.g 3 ( ' {  . .D.U.W.H.U.!.!.I.I.W.!.Y.D.E.U.D... .} { / 3 f ,.&.s - % o o o o o $ $ $ $ $ $ $ ",
"$ o o o o o . o o o o . o o O 1 j ^ _ _ ' { { { { | O...2.D.D.Z.3.F.D.2.o.O. .} ' ' ' ' ' _ ^ j 1 & % o o o o o o o $ $ $ $ $ $ ",
"o o o o o . o . o o o o o o . o = i )  .| ' } } } } ' ' { { } } } { { { ' ' ' ' { } ' |  .) e # o o o o o o o o o $ $ o $ $ $ o ",
"% o o o o o o o . o o o o o o . . o o 8 U ^ E ^ { } } } } } } } } } } } } } { _ W W ^ U 8   o   o o o o o o o o o $ $ o o o $ $ ",
"o o o $ o o o   . o o o o . . o . . . o o # , > q N U ! ) ( ( ( ( ( ( / ~ T B 9 > 7 # o o o o o o   o . o o o o o o o O o $ o o ",
"o % % o o $ o   . o o o o o . o . . . o o o o o o % $ - - 8 7 8 8 8 , - = $ o . o o o o o o o . o     o o o o o o $ $ $ o $ o $ ",
"% o $ % o o o o o . . o o . o   . .   . o o o o o o o o $ o o o $ % % o o o o o   o   o o o o         o o o o o o o $ o o o o o "
};
