/* XPM */
static char *result[] = {
/* columns rows colors chars-per-pixel */
"64 64 148 2 ",
"   c #1F1C1C",
".  c #221E1E",
"X  c #0D0126",
"o  c #0F0228",
"O  c #120726",
"+  c #150B27",
"@  c #13022C",
"#  c #18052F",
"$  c #160A2A",
"%  c #190D2A",
"&  c #1B1426",
"*  c #1F1924",
"=  c #1B1229",
"-  c #170330",
";  c #180331",
":  c #120B30",
">  c #191836",
",  c #161638",
"<  c #221E21",
"1  c #242123",
"2  c #292424",
"3  c #2F2920",
"4  c #25252A",
"5  c #292628",
"6  c #26282E",
"7  c #2D2B2D",
"8  c #302426",
"9  c #312B20",
"0  c #352629",
"q  c #3C292C",
"w  c #3C3320",
"e  c #272B33",
"r  c #2A2E35",
"t  c #282F39",
"y  c #302E30",
"u  c #29323D",
"i  c #323134",
"p  c #36373B",
"a  c #38373A",
"s  c #3A3A3C",
"d  c #422C2F",
"f  c #413720",
"g  c #432C30",
"h  c #4B2F33",
"j  c #513237",
"k  c #573439",
"l  c #4E4221",
"z  c #625321",
"x  c #6D5B21",
"c  c #756221",
"v  c #2B3643",
"b  c #2B3846",
"n  c #2C3B4C",
"m  c #3E3F42",
"M  c #2E3F51",
"N  c #673B41",
"B  c #683C42",
"V  c #3F4146",
"C  c #2F4256",
"Z  c #2F4459",
"A  c #30465D",
"S  c #2D4968",
"D  c #314B64",
"F  c #324E69",
"G  c #34526E",
"H  c #345574",
"J  c #365877",
"K  c #365A7B",
"L  c #424347",
"P  c #444548",
"I  c #494B4F",
"U  c #4D5155",
"Y  c #52565B",
"T  c #54585D",
"R  c #515A65",
"E  c #61676C",
"W  c #656C72",
"Q  c #697177",
"!  c #6C757B",
"~  c #6F787E",
"^  c #70797F",
"/  c #836E21",
"(  c #887221",
")  c #947B22",
"_  c #874851",
"`  c #884951",
"'  c #A95762",
"]  c #AA5762",
"[  c #B85D69",
"{  c #C2616E",
"}  c #D76978",
"|  c #D86A79",
" . c #A18622",
".. c #A38822",
"X. c #A88C22",
"o. c #C5A422",
"O. c #D1AD22",
"+. c #D8B323",
"@. c #EDC423",
"#. c #F1C723",
"$. c #FED323",
"%. c #365C80",
"&. c #385F82",
"*. c #396186",
"=. c #3A658C",
"-. c #657382",
";. c #6C7C8E",
":. c #717A81",
">. c #EB7182",
",. c #FF7D8F",
"<. c #768187",
"1. c #778188",
"2. c #79848A",
"3. c #7C888F",
"4. c #728396",
"5. c #7E8991",
"6. c #76889C",
"7. c #828F96",
"8. c #849199",
"9. c #89979F",
"0. c #89989F",
"q. c #8B99A1",
"w. c #879EB5",
"e. c #92A1AA",
"r. c #8AA2BB",
"t. c #97A7B0",
"y. c #97A8B1",
"u. c #98A9B2",
"i. c #9DAEB8",
"p. c #A1B3BD",
"a. c #9EBCD9",
"s. c #A1BEDB",
"d. c #ADC1CC",
"f. c #B4CAD4",
"g. c #B9CFDB",
"h. c #BAD1DC",
"j. c #AACBEA",
"k. c #BFD6E1",
"l. c #C0D7E3",
"z. c #C2DAE6",
"x. c #C5DDE9",
"c. c #C8E1ED",
"v. c #CCE5F2",
"b. c #CFE9F5",
"n. c #D0EBF7",
"m. c #D4EFFC",
"M. c #D6F1FE",
"N. c #D8F4FF",
/* pixels */
"@ @ @ @ o o @ @ @ @ @ @ @ @ @ @ @ @ o o @ @ @ - - - - @ - @ @ - & * * * * * * * * * * * * * * * * * & o @ @ @ - - ; - @ - @ @ @ ",
"@ @ @ @ @ o @ @ - @ @ @ @ @ @ @ @ @ o o @ o @ @ - - - - @ @ @ $ < 1 . 1   <   * <   * . <   . * 1 . < o o @ @ @ - - - @ @ # @ @ ",
"@ @ o @ @ @ @ @ @ @ @ @ @ o o @ @ @ @ o o @ @ @ - - @ - - - @ % < . w l l l l l l l l l l l l l w < * O @ o @ @ - - - - @ - - @ ",
"o @ @ @ @ @ @ @ @ @ @ o o o o o o o @ @ o @ @ @ @ - - - @ @ # % < 1 X.#.@.@.@.@.@.@.@.@.@.@.@.#.( * < $ o @ @ @ @ - - - @ @ - @ ",
"@ @ @ @ @ @ @ @ @ o @ @ o X o X o o @ o @ @ @ @ - - - - @ - @ $ < < ) $.$.$.$.$.$.$.$.$.$.$.$.$.)   1 O @ @ o @ @ - - @ - # @ @ ",
"@ @ @ @ @ @ @ @ @ @ @ @ o o o o @ @ @ @ @ @ @ @ - @ - - - @ - $ < < 9 / .... . . . . . . . .....z * * # @ @ @ - @ - - - @ - @ - ",
"@ @ @ @ @ @ @ o @ o o o o o o @ @ @ @ @ - @ @ @ @ - @ @ @ @ - # & . . * < < .   . . . . . . < < < < < $ @ @ @ @ @ - @ - @ - - @ ",
"@ @ @ @ @ @ @ @ @ o @ o o X @ @ @ - - - @ @ @ @ @ @ @ @ @ @ @ @ @ % < 1 1 y y y y y y y y r 1 1 < < * $ @ @ @ @ @ @ @ @ @ @ @ @ ",
"@ @ @ @ @ @ @ - @ o @ X @ o @ @ @ - - @ @ - @ @ @ @ @ @ @ o @ @ @ & < < Q f.f.f.f.f.f.f.f.d.P . < % ; @ @ @ @ @ @ @ @ @ @ o @ @ ",
"o @ o @ @ o @ @ @ @ @ @ @ @ @ @ - - ; - @ @ o @ @ @ @ @ @ @ @ @ + < . U x.N.N.M.M.M.M.M.M.z.s . = ; ; - @ @ o o @ @ @ @ @ @ o @ ",
"o o o o o @ o @ @ @ @ @ @ @ @ @ - ; ; - @ @ @ o @ o @ & & & & &   < < Y <.<.y.n.m.m.M.M.M.d.7 . = ; ; - @ @ @ @ @ @ @ @ o @ @ @ ",
"o o o o o o o o o @ o o @ @ @ @ - ; ; @ @ @ @ @ @ @ * < < < . . < . . . .   i f.M.m.m.m.N.e.1 < % ; ; - @ @ o @ o - % = = = = $ ",
"o X X X X X X X o X X X @ o @ @ - - - - @ @ @ @ @ % < < 0 d d d d d d 3 1 . U x.M.m.m.m.M.3.. < # ; ; # @ @ @ @ = < . . < . 1 . ",
"o X X X X X X X X X o o @ @ @ @ ; ; - @ o @ @ @ $ < < q { >.>.>.>.>.[ 0   a d.M.m.m.m.m.M.E . < ; ; @ # @ @ % * < . 1 5 < < < * ",
"X X X X X X X X X X X o @ @ @ ; - ; - @ @ @ @ # < . < h _ _ _ _ ` ` j . 7 e.M.m.m.m.m.m.v.U   * - ; # @ % < < . . s ! I < < * O ",
"X X X X X X X X $ @ X X @ @ @ - - - - @ @ @ @ = < 1 . 1 .   .         < <.n.M.m.m.m.m.M.k.s . & ; ; = * . . . a 2.d.Q 1 < * $ X ",
"X X X X X X X X X o o o @ @ @ ; ; ; - @ @ @ @ $ < < < < < < y L m m m Q c.m.m.m.m.m.m.M.d.7 1 * = < < < < s 2.g.v.! 1 . < @ o o ",
"X X o X X X X X X o @ @ @ @ - ; ; - - @ - @ o @ @ $ $ < < y p.x.z.z.x.b.M.m.m.m.m.m.m.N.y.1 . . < < . m 2.g.M.v.! < . & $ @ o o ",
"o X o X X X X X o @ @ @ @ @ - @ - - - @ @ o @ @ @ @ < 1 1 8.m.m.m.N.m.m.m.m.m.m.m.m.N.v.~ . . . . s 2.g.m.M.v.:.2 < < $ o @ @ @ ",
"o o X o o o o o @ @ @ @ @ @ @ @ @ @ @ - @ @ @ o @ % < . E b.N.N.m.N.N.M.N.M.N.N.N.c.t.Y 4 . 1 m 5.k.N.N.m.v.:.< . < @ @ o @ @ @ ",
"o o o o @ @ @ @ @ @ - - @ @ @ @ @ @ @ @ @ @ o @ % < < 2 ^ q.0.0.q.q.9.9.0.0.0.9.8.Y 1 . < . a ^ q.q.q.q.q.E < < . $ o @ @ @ @ @ ",
"o o o o o @ @ @ @ @ @ @ @ @ @ @ @ @ @ @ @ @ # = < . < < . . . . . . . . . . . . . . < . < < < < . . . . . < < < # @ @ @ @ @ @ o ",
"@ o @ @ @ @ @ @ @ - @ @ @ @ @ @ @ @ @ @ $ & * < . 1 4 1 4 4 2 4 1 < < 1 4 1 4 4 1 < . 1 4 4 4 4 4 4 4 4 4 < < < @ @ @ o o @ o o ",
"o @ @ @ - @ - - @ @ @ @ @ @ @ @ @ @ $ % < < . 1 u F K K K K K K n . 4 H K J J K F 4 . 1 C K J K J J J J H u < < # @ @ @ o @ o o ",
"@ @ @ @ @ @ ; @ @ @ @ @ @ @ @ $ $ = * < . 1 r D *.=.=.*.D A A A u . 6 &.=.=.=.=.=.F 4 < 6 H =.=.=.=.=.=.=.G 1 . < @ o o @ @ o @ ",
"@ @ @ @ @ @ @ @ @ @ @ O = & * < < < . < e D &.=.=.*.D t . . . . . 1 7 K =.=.=.=.=.=.A 1 . 6 J =.=.=.=.=.=.*.u . < # @ o o o @ @ ",
"@ @ @ @ @ @ $ % & * < < < . . . 1 1 e A K =.=.=.F u < . 1 r 1 1 1 . b *.=.=.=.=.=.=.=.Z 1 . u =.=.=.=.=.=.=.F 1 < = @ @ @ @ @ @ ",
"@ @ @ @ $ < . 1 < . . . 1 4 u M D H &.=.=.=.G u 1 . < m 6.;.7 . . n *.=.=.=.=.=.=.=.=.=.b . 7 K =.=.=.=.=.K n 1 . < @ o @ @ @ @ ",
"- @ @ = < < < < 4 r b Z H K *.=.=.=.=.=.H n 4 . . p ;.s.6.r . 1 C *.=.=.=.=.=.=.=.=.=.=.C < 6 K =.=.=.=.A 6 <   < * @ @ @ @ @ - ",
"@ @ = < < < . . t K =.=.=.=.=.=.=.=.K M 4 . 1 i -.a.j.-.2 . 4 D =.=.=.=.=.=.=.=.=.=.=.=.C < 6 K =.=.K u 1 * 3 3 < < # @ @ @ - - ",
"% < < < g ] B . 1 H =.=.=.=.=.=.&.A 4 . < . a ;.r.r.R < . e G =.=.=.=.=.=.=.=.=.=.=.=.=.C < 6 *.=.=.F < < l X.x . < ; # @ @ - @ ",
"< < < k | ,.{ 2 1 F =.=.=.=.=.=.b . . < 1 . 2 4 1 1 1 . r K =.=.=.=.=.=.=.=.=.=.=.=.=.=.C . 6 K =.=.D < 9 o.$.c * < ; @ @ @ - - ",
"< . < k } ,.{ 2 * F =.=.=.=.=.=.v < . . < < < 1 1 1 <   u K =.=.=.=.=.=.=.=.=.=.=.=.=.=.C . e K =.=.F < 9 O.$.c   < # @ @ # @ @ ",
"$ * 1 . d ] N   1 H =.=.=.=.=.=.K C 2 . 1 . a 4.r.w.R * < e G =.=.=.=.=.=.=.=.=.=.=.=.=.C . 4 K =.=.D < 1 c +.c   * # @ - @ @ @ ",
"@ @ & . . 1 1 . t *.=.=.=.=.=.=.=.=.J C 1 < < a -.s.j.-.1 . 4 D =.=.=.=.=.=.=.=.=.=.=.=.C . 4 &.=.=.H 6 < < f f 1 * - # - @ @ @ ",
"@ O @ = < < . . 1 n *.=.*.%.&.=.=.=.=.=.H b 1 < * s 4.d.4.7 . 4 C *.=.=.=.=.=.=.=.=.=.=.C . 4 &.=.=.=.H v 1 < < . < ; # @ - @ - ",
"@ @ @ @ $ * < 1 < 1 S %.Z 6 M =.=.*.*.=.=.*.G v 1   < V 6.;.7 < 1 n &.=.=.=.*.=.=.=.=.=.n . 7 K =.=.=.=.=.G r < 1 * - - - @ - @ ",
"- @ @ @ o - # % & % o , * . 6 H *.C e Z *.=.=.*.F t 1 < 1 i 2 . < < b =.=.=.=.=.=.=.=.F 4 < e &.=.=.=.=.=.=.F 1 < & - - @ - - @ ",
"@ @ @ @ @ @ o o o - o o @ & $ : > * < 1 6 A *.=.=.=.A e . . . . < < 6 K =.=.=.=.=.=.F 4 . 4 G =.=.=.=.=.=.=.v < < % @ @ - @ @ # ",
"@ @ @ @ o o - - o o o o o o @ @ @ = * . . < t F *.=.=.K D A C A u . 6 *.=.=.=.=.=.G 4 . 4 F =.=.=.=.=.=.=.G 1 < & @ @ @ @ @ @ @ ",
"@ @ @ @ @ @ @ @ o @ o o @ o @ @ $ - ; = * 1 . 1 u F K K K K K K n . 6 G K K K J F 6 . < C J J J J J K J J u . < % @ @ @ @ @ @ @ ",
"o @ o @ @ @ @ @ @ @ @ @ @ @ @ @ @ - - - $ = < . . 1 1 4 4 1 4 4 1 . 1 2 2 5 4 4 1 < < < 4 4 4 4 1 4 4 4 4 1 < & o @ @ @ @ @ o @ ",
"@ o o @ o @ o @ @ @ @ @ @ @ @ - - - ; - @ @ $ = < < . 1 < . . . 1 . < . . . . < . . 1 . . . 1 . . . . . . . < < $ @ @ @ o @ @ @ ",
"o o X o o o o o o @ o o o @ @ @ - ; ; - @ @ @ o % < < 2 ^ q.q.q.0.0.0.0.0.0.0.0.8.Y 2 . . . a :.q.q.q.q.q.W 2 < < # @ @ @ @ @ o ",
"X X X X X o @ X o o X o o @ @ @ - ; ; @ @ o @ @ @ = < . E b.N.N.N.N.M.M.M.M.M.M.M.v.u.T 5 < 1 m 5.k.N.N.N.v.:.1 < & % @ @ o @ o ",
"X X X X X o X X X o X o @ @ @ - ; - - @ @ @ @ @ - @ & 1 1 7.M.M.M.M.M.M.M.M.m.m.n.M.M.v.~ . < . . s 2.g.m.M.v.! < < < % @ o o o ",
"X X X X X X X X X X X o @ @ @ - ; ; - @ @ @ @ @ $ $ % < . i u.f.f.f.f.c.M.M.M.M.M.M.M.N.u.1 . < < < . a 1.g.m.b.! 2 < < $ X o o ",
"X X X X X X X X O @ X o o @ @ - ; - - @ @ @ @ % < . 1 < . . 2 y 7 y 7 Y h.M.n.M.M.n.n.M.d.7 . * % < < . . s 1.g.v.~ . . * @ o o ",
"X X X X X X X X X X X o @ @ @ - ; - - - o - @ % < 1 < < . < . . . . . . W v.m.M.m.m.m.M.l.s . & ; ; = < < .   a 1.d.! 1 < < O o ",
"X X X X X o X X X o @ o @ @ - - ; - - @ - o o @ * < . j ' ] ] ] ] ] N . 1 5.m.M.m.m.m.m.v.U . * ; ; - - % * < . . s ! I < < * $ ",
"X X X X X X o o o @ @ @ @ @ - @ - - - @ o o @ @ @ * 1 0 ] | | | } } [ q . 7 i.M.m.m.m.m.M.W . . - - @ - @ @ % * < . < 2 < < < < ",
"o X X X o o o @ @ @ @ @ - - @ @ o - @ - - o o @ @ % < . 2 2 0 2 8 2 2 3 < . L l.M.m.m.M.M.5.. < $ @ - @ @ @ o @ % * 1 . . < . < ",
"o o o o @ @ @ @ @ @ @ - @ - @ @ o - @ - - o @ o @ @ = . < .   . . < < 1 < < s h.M.m.m.m.N.u.1 . % @ - @ @ o o @ @ @ + = & & = % ",
"o o o X X @ @ - @ @ @ @ - @ @ @ @ - @ o @ @ @ @ @ @ @ + = = & = < < 1 W e.e.d.n.m.m.m.m.M.d.7 < = @ @ o @ @ @ @ $ @ @ @ @ @ @ o ",
"@ o @ @ @ @ # @ @ - @ @ @ @ @ @ @ o @ @ @ @ - - $ @ @ @ o @ o @ % < . U x.N.M.M.M.M.M.M.M.z.s . & @ @ @ @ @ @ - @ @ @ X @ @ @ X ",
"o @ @ @ # @ @ @ @ @ @ @ @ @ @ @ @ @ @ @ @ - @ - @ @ @ @ @ o @ X o & . . Q f.f.f.f.f.f.f.f.d.P   < $ @ - - - - @ - @ @ @ o X @ o ",
"- @ @ - - @ - - o @ @ @ @ @ @ @ @ @ @ @ @ @ @ @ @ @ @ @ o o o @ # + < . 1 y y y r y y y y y 4 < 1 < * @ @ @ @ @ @ @ o o @ @ o @ ",
"o @ @ @ @ @ @ @ @ o @ o @ o o @ @ @ @ @ @ @ @ @ @ @ o o @ @ @ @ = 1 < < < < . < . . . .   . . 1 . < < @ @ @ @ @ @ @ @ o o o @ @ ",
"@ @ @ @ @ @ @ @ o o @ o o o @ @ @ o @ @ @ @ @ @ @ @ @ o o @ - $ . < 9 c  . . . . . . . . . . ...z   < $ @ @ @ @ @ @ @ @ @ @ @ @ ",
"- @ @ @ o @ @ @ @ @ @ @ @ @ @ @ @ @ o o o o @ o @ @ o @ @ @ @ % < .  .$.$.$.$.$.$.$.$.$.$.$.$.$.) < . @ o o o @ @ @ @ o @ @ @ @ ",
"@ @ @ o o @ @ @ @ o o @ @ - o - @ o o o o @ @ @ @ @ @ @ @ - @ % < < X.#.@.@.@.@.@.@.@.@.@.@.@.#.(   < O o @ @ @ @ @ @ @ @ @ @ - ",
"- @ @ @ @ o o @ @ @ - @ @ @ @ o @ @ @ o o @ @ @ - - - @ @ @ - % < < f l l l l l l l l l l l l l 9 1 < O @ @ @ @ - - - @ @ @ - - ",
"- @ @ o @ @ o @ - - - @ - o o @ @ o o @ @ @ - @ - ; - @ @ @ # % < < 1 *   < .   * . < < * . *   < 1 < @ o @ @ @ - ; - @ @ @ - @ ",
"@ - @ @ o @ @ @ @ @ @ - - - o @ @ @ o o o @ @ - ; ; - @ @ - @ # & < * * * * * * * * * * * * * * * * = o @ @ - - ; ; - - @ @ - - "
};
