/* XPM */
static char *_23ed059ae90411df944f07ae2cd0674SRZCUzQlfgm2OtAk[] = {
/* columns rows colors chars-per-pixel */
"64 64 150 2 ",
"   c #1F1C1C",
".  c #221E1E",
"X  c #0D0126",
"o  c #0F0228",
"O  c #120726",
"+  c #150B27",
"@  c #13022C",
"#  c #18052F",
"$  c #160A2A",
"%  c #190D2A",
"&  c #1B1426",
"*  c #1F1924",
"=  c #1B1229",
"-  c #170330",
";  c #180331",
":  c #120B30",
">  c #181737",
",  c #221E21",
"<  c #242123",
"1  c #292424",
"2  c #2F2920",
"3  c #25252A",
"4  c #292628",
"5  c #26282E",
"6  c #2D2B2D",
"7  c #302426",
"8  c #312B20",
"9  c #352629",
"0  c #3C292C",
"q  c #3C3320",
"w  c #272B33",
"e  c #2A2E35",
"r  c #282F39",
"t  c #302E30",
"y  c #29323D",
"u  c #323134",
"i  c #36373B",
"p  c #38373A",
"a  c #3A3A3C",
"s  c #422C2F",
"d  c #413720",
"f  c #432C30",
"g  c #4B2F33",
"h  c #513237",
"j  c #573439",
"k  c #4E4221",
"l  c #625321",
"z  c #6D5B21",
"x  c #756221",
"c  c #2B3643",
"v  c #2B3846",
"b  c #2C3B4C",
"n  c #3E3F42",
"m  c #2E3F51",
"M  c #673B41",
"N  c #683C42",
"B  c #3F4146",
"V  c #2F4256",
"C  c #2F4459",
"Z  c #30465D",
"A  c #2D4968",
"S  c #314B64",
"D  c #324E69",
"F  c #34526E",
"G  c #345574",
"H  c #365877",
"J  c #365A7B",
"K  c #424347",
"L  c #444548",
"P  c #494B4F",
"I  c #4C4F53",
"U  c #4D5155",
"Y  c #52565B",
"T  c #54585D",
"R  c #515A65",
"E  c #61676C",
"W  c #656C72",
"Q  c #616E7D",
"!  c #697177",
"~  c #6C757B",
"^  c #6F787E",
"/  c #70797F",
"(  c #836E21",
")  c #887221",
"_  c #947B22",
"`  c #884951",
"'  c #A95762",
"]  c #AA5762",
"[  c #B85D69",
"{  c #C2616E",
"}  c #D76978",
"|  c #D86A79",
" . c #A18622",
".. c #A38822",
"X. c #A88C22",
"o. c #C5A422",
"O. c #D1AD22",
"+. c #D8B323",
"@. c #EDC423",
"#. c #F1C723",
"$. c #FED323",
"%. c #365C80",
"&. c #385F82",
"*. c #396186",
"=. c #3A658C",
"-. c #667484",
";. c #6C7C8E",
":. c #717A81",
">. c #EB7182",
",. c #FF7D8F",
"<. c #768187",
"1. c #778188",
"2. c #79848A",
"3. c #7C888F",
"4. c #728396",
"5. c #7E8991",
"6. c #76889C",
"7. c #798CA0",
"8. c #828F96",
"9. c #849199",
"0. c #89979F",
"q. c #89989F",
"w. c #8B99A1",
"e. c #879EB5",
"r. c #92A1AA",
"t. c #8AA2BB",
"y. c #97A8B1",
"u. c #98A9B2",
"i. c #9AABB4",
"p. c #A1B3BD",
"a. c #9EBCD9",
"s. c #ADC1CC",
"d. c #B4CAD4",
"f. c #B9CFDB",
"g. c #BAD1DC",
"h. c #AACBEA",
"j. c #BFD6E1",
"k. c #C0D7E3",
"l. c #C2DAE6",
"z. c #C5DDE9",
"x. c #C8E1ED",
"c. c #CCE5F2",
"v. c #CCE6F2",
"b. c #CFE9F5",
"n. c #D0EBF7",
"m. c #D4EFFC",
"M. c #D5F0FD",
"N. c #D6F1FF",
"B. c #D6F2FF",
"V. c #D8F4FF",
/* pixels */
"@ # @ @ @ ; ; ; - @ @ o o + * * & , & * * * * * * * * * * * * & # # - @ @ - - - - @ @ @ o o @ @ @ @ @ @ @ - @ @ @ @ @ @ o @ - @ ",
"- - @ @ @ - ; - - @ @ @ @ , . < . , , . * , * , . , . * *   . < % @ @ @ - - ; - @ @ @ @ o o o @ o o @ - - - - @ @ o @ @ @ @ @ - ",
"- - @ @ @ - - @ @ @ @ @ @ < . q k k k k k k k k k k k k k d . < % - @ @ @ - - - @ @ @ @ o @ o @ @ @ @ @ @ @ @ @ @ o o o o @ @ - ",
"@ @ - @ @ @ @ @ @ @ @ o O   * ) #.@.@.@.@.@.@.@.@.@.@.@.#.X.<   % - @ @ @ @ @ @ @ @ @ o @ o @ @ @ @ @ @ @ @ o @ @ @ @ @ @ @ @ @ ",
"@ - @ @ @ o @ @ @ o @ o O *   _ $.$.$.$.$.$.$.$.$.$.$.$.$. .. < $ @ @ @ @ @ @ @ o @ @ o o o @ @ - o @ @ @ @ @ - @ @ @ o @ @ @ @ ",
"- @ @ o o @ @ @ @ @ @ @ $ , , l .. . . . . . . . . . . .x 2 < * $ - @ @ @ o @ @ @ @ @ o @ @ o o @ o o o @ o o o @ @ @ @ @ @ @ @ ",
"@ @ @ @ o o @ @ o @ @ @ $ * < . . , . . , . . . . . . . < . . = @ @ o o @ o @ o @ @ @ @ @ @ @ @ @ o @ @ o o o @ @ @ @ @ @ - @ @ ",
"@ o o o @ @ @ @ @ @ @ @ @ *   < . 1 e t t t t t 6 u t < . < + $ o @ @ o o @ @ @ @ @ @ @ @ @ @ @ @ @ @ @ @ @ @ @ @ - - @ - @ o - ",
"o o @ o @ @ @ # @ - @ - @ @ $ * . L s.d.d.d.d.d.d.d.d.! . . = O @ o o o @ @ @ @ @ @ @ @ @ @ @ @ @ @ @ @ @ @ o @ - - - @ @ @ @ o ",
"@ o @ o @ @ @ @ - @ @ @ @ @ @ & . a l.M.M.V.M.M.V.V.V.l.U . . + o @ @ @ @ @ @ @ ; # @ @ @ @ @ @ @ @ @ @ @ @ @ @ @ @ - @ @ o o o ",
"o @ @ @ @ o $ @ @ @ @ @ @ @ @ = , 6 s.M.M.m.m.M.m.s.r.r.! < < * + = = = + @ @ @ - @ @ @ @ @ @ @ @ @ @ - @ @ @ @ @ @ @ o o o o o ",
"+ = = = = + @ @ @ @ @ @ @ @ @ % , < u.m.M.m.m.M.g.p . . < . . . . , , . . = @ @ @ @ @ @ @ - @ @ @ @ @ - @ - @ @ @ @ o @ o o o @ ",
". . , , . . * + @ @ @ @ @ - @ $ , , 5.m.m.m.m.M.j.L . < 1 7 7 7 2 7 2 1 < , % @ @ @ o @ @ @ @ @ @ @ @ - @ @ @ @ @ o X X o o o o ",
", , . , 4 . . < * + @ @ - @ - ; ,   W m.m.m.m.m.M.i.6 . 9 [ } } | | } ] 7 , & $ @ o @ @ - @ - ; @ - - @ @ @ @ o o X X X o o X o ",
"@ * < . P ~ a . . . * % # @ - ; , , U c.M.m.m.m.m.M.8.< . M ] ] ] ] ] ] h . , , @ @ @ @ @ @ ; ; - - @ @ @ o o X X X X X X o o o ",
"o $ , . < ~ s.1.p . , , * = ; ; * . a j.M.m.M.m.m.M.c.W . . , . * . . . < , < . % @ @ @ @ ; ; ; - @ @ @ o o o X X X X X X X X o ",
"o o O , . , ~ c.f.<.p . . , , % = , 6 s.M.M.M.m.m.m.M.j.T 6 6 6 t 4 , , , , , , $ @ @ @ @ - - ; - @ @ @ o X @ O X X X X X X X X ",
"o o o + , , , ~ b.M.g.1.p . . , , , < u.M.M.m.m.M.M.m.M.z.d.d.d.d.u.u , , % $ $ - @ @ @ @ - ; ; - @ @ @ o X X X X X X o X X X X ",
"o o @ @ # , , < ^ c.M.M.f.2.a . , , . ^ c.V.M.M.M.M.M.M.M.M.M.M.M.M.9., , * @ @ @ @ @ @ @ - ; ; @ @ o @ o X o o X X X X X X X X ",
"o o o @ @ # , , < / b.V.V.V.g.5.n 1 . 1 Y u.c.M.M.V.M.V.V.V.V.V.M.V.b.E , , = # @ @ @ @ @ - - - @ @ @ o X o X o X o o o X X X X ",
"o @ @ @ @ @ $ , , < W w.w.w.w.w./ p . < . 4 Y 9.q.w.q.w.w.w.w.w.w.w.w./ 3 . , + o @ @ @ @ ; ; - @ @ @ o o @ o o o o o o X X X o ",
"@ @ o @ - @ @ # , . . . . . . . . < . , . . . . . . . . . . . . . . . < < . . , = $ @ @ - - ; - @ - @ @ @ @ @ @ @ o @ o X X o o ",
"@ @ @ @ @ @ @ o * , . 3 3 3 3 3 3 3 < 3 < , . 1 3 3 3 3 3 . < < 3 < 1 3 < 3 < . , , = # # - - - @ - @ @ @ @ @ @ @ @ @ @ o @ @ @ ",
"@ @ @ @ @ @ @ $ , < y H H H J J H H J m < . 3 D H J H J F 4 . b J J J J J H D y < . . * = - - - @ @ @ o o @ o @ @ @ @ @ @ @ o @ ",
"@ @ @ @ @ - @ & < < F =.=.=.=.=.=.=.D 3 . 3 F =.=.=.=.=.&.5 . y Z Z Z S J =.=.*.S r , < , * % @ @ o o o o o o @ @ @ o @ @ @ @ @ ",
"@ @ - @ @ @ $ , , c =.=.=.=.=.=.=.D 4 , 3 D =.=.=.=.=.=.J 5 , . . . . < e S *.=.=.&.C w < . , > : O = o @ o @ @ o @ @ @ @ @ @ @ ",
"@ - @ - @ - & < < D =.=.=.=.=.=.&.e . 3 S =.=.=.=.=.=.=.=.v . . . 1 u < . , e D *.=.=.&.V e V J G 5 , * > @ + = + $ # @ @ @ @ @ ",
"@ @ - @ # ; , , , e D =.=.=.=.=.J 5 , b =.=.=.=.=.=.=.=.=.*.b < . 4 ;.7.B . . < c D =.=.=.*.=.=.=.V 5 C J A 3 , < , * $ @ @ @ @ ",
"- @ @ @ ; ; * , . . < v H =.=.=.&.3 . V =.=.=.=.=.=.=.=.=.=.*.V < . e 4.a.4.a . . < v G =.=.=.=.=.*.J =.=.=.b < . < , , % $ # @ ",
"@ @ - @ - # , , d d . . 3 H =.=.J w . V =.=.=.=.=.=.=.=.=.=.=.=.D 4 . < Q h.h.-.i < . 3 b J =.=.=.=.=.=.=.=.&.e . , <   , & @ @ ",
"@ @ @ - # # *   x +.x < . S =.=.&.5 , V =.=.=.=.=.=.=.=.=.=.=.=.=.F w . . R e.e.;.i . . . 3 V %.=.=.=.=.=.=.F < , N ] s . , * + ",
"- @ - @ @ # , * x $.O.2 , S =.=.J 5 . V =.=.=.=.=.=.=.=.=.=.=.=.=.=.J r . . , , 1 < . < , ,   c =.=.=.=.=.=.D , 1 { ,.| j . . , ",
"@ - # @ # - , * x $.o.2 , S =.=.*.3 . V =.=.*.=.=.=.=.=.=.=.=.=.=.=.H r . . < 1 4 < < < . . . c =.=.=.=.=.=.F < < { ,.| j . . , ",
"- - @ @ @ # * , z X.k , , D =.=.J 1 . V =.=.=.=.=.=.=.=.=.=.=.=.=.F w . < R t.t.;.i , , . 5 Z &.=.=.=.=.=.=.F < . N ] f . , * % ",
"- - @ @ @ # , , 8 1 < , c J =.=.&.5 . V =.=.=.=.=.=.=.=.=.=.=.=.D 3 . 3 -.h.a.-.u , . 3 m J =.=.=.=.=.=.=.=.J r . . < . , * @ - ",
"@ @ @ @ @ @ , . . . 5 S %.=.=.=.J 5 . Z =.=.=.=.*.=.=.=.=.=.*.C < . 6 6.a.;.i . . < b H =.=.=.=.=.=.J F Z b w 3 . < . , = @ @ @ ",
"@ @ @ o @ @ * . < b J =.=.=.=.=.&.3 , b =.=.=.=.=.=.=.=.=.*.b . . 4 ;.6.n . . , c G =.=.=.&.H S b y 4 < . . . . < , * $ @ @ @ @ ",
"- # @ @ o @ & . < D =.=.=.=.=.=.*.y . < Z =.=.=.=.=.=.=.*.v . . < 1 e < . < y D =.=.=.J C w < . . . . . , , * & % O @ @ @ @ @ @ ",
"@ @ o o o @ $ , . y *.=.=.=.=.=.=.H w . 3 Z =.=.=.=.=.=.*.5 . < . . < , e D *.=.=.&.Z w , . < , , , & % $ @ o o @ @ @ @ @ - @ @ ",
"@ o o @ @ @ @ & . < F =.=.=.=.=.=.=.G 5 . 1 D =.=.=.=.=.J 5 . y Z C C S %.=.=.*.S r , , , , = + # @ @ @ @ @ @ @ - @ - @ - @ o - ",
"o o o @ o @ @ # , , c H J J J J J J J C < . 3 D J H H J G 3 . b J J J J J G D y < , , , % @ @ @ @ @ @ @ @ @ @ @ @ - @ - @ @ @ o ",
"o @ @ o @ @ @ @ , , , , 3 , < < 3 1 3 3 . < . < 3 1 3 < 3 , . < 4 3 3 3 3 3 < , . , = ; @ @ @ @ @ @ @ @ @ @ @ @ - @ @ @ @ o o @ ",
"@ @ o @ o @ @ % , . . . , , . . . < . . . . . . . . . . . . . . . . , . , . , , & # @ @ @ @ @ @ @ @ @ @ @ @ @ @ @ @ @ o o o o o ",
"@ @ @ @ @ o # , . 1 W w.w.w.w.w.:.p . . . < Y 9.q.q.q.w.q.q.q.q.q.q.w.^ 1 , , $ @ o @ @ @ @ - @ @ - @ # @ @ @ @ @ @ @ @ o o o @ ",
"@ @ @ o @ $ , , , ^ c.V.V.M.j.5.B < . 1 Y u.x.M.M.M.V.M.M.M.V.V.M.B.n.E . . = @ @ o o @ @ @ @ @ @ @ @ - @ @ @ @ @ o X X o o o o ",
"o @ @ @ @ * . , ^ c.M.M.g.2.a , . < . / c.V.M.M.m.m.M.M.M.M.M.m.M.M.9.< . . @ @ @ @ @ @ @ # - - @ - @ @ @ @ @ o o X X X o o X o ",
"o o @ O , . < ~ c.V.g.2.a . , , . . 1 u.M.m.M.M.M.m.M.M.b.z.l.l.z.p.u . . $ # @ @ @ @ @ @ @ ; ; - - - @ @ o o X X X X X X X o o ",
"o @ $ * , , ~ c.g.2.a . . , , % = . 4 s.M.m.m.m.M.M.M.x.! a n K L e . . , , , , O @ @ @ - - - ; - @ @ @ o o o X X X X X X X X o ",
"o O * . < ! s.2.p . . < * % ; ; & . a k.M.M.M.m.m.m.n.1.<           . . . < , , % @ @ @ @ - - ; - @ @ @ o X @ O X X X X X X X X ",
"O * . . P ~ a . . < * + $ @ ; ; & . U c.M.M.m.m.m.M.r.4 . h ` ` ` ` ` ` g , , , # @ @ @ @ @ ; ; - @ @ o o X X X X X X X X X X X ",
"* < < . 1 < . . , % @ @ @ - ; # ,   W m.M.m.m.m.M.s.p . 9 [ >.>.>.>.>.{ 0 , * $ @ @ @ @ - - ; ; @ @ @ @ o X o o X X X X X X X X ",
". . . < , . * % @ @ @ @ @ ; ; % ,   3.V.m.m.m.M.x.U . . 1 s s s s s s 9 . , = @ @ @ @ @ @ - ; - @ @ @ o X o X o X o o o X X X X ",
"O = = & = + @ @ o @ @ @ - ; ; % < < y.M.m.M.M.M.d.u   . . . . . . . < . . = @ @ o o @ @ @ ; ; - @ @ @ o o @ o o o o o o X X X o ",
"@ @ @ @ @ @ @ @ @ @ @ @ - ; ; = . 6 s.M.m.m.M.M.n.u.<.2.Y . . , & & & & = @ @ @ @ @ @ @ - ; ; ; - @ @ @ @ @ @ @ @ @ o @ X X o o ",
"@ @ @ @ @ @ @ @ o @ @ @ ; ; ; & . a j.V.M.M.V.M.M.V.V.l.U . . + o @ @ @ @ @ @ @ @ @ @ @ ; ; - - @ - @ @ @ @ @ @ @ @ @ o @ o @ o ",
"@ @ @ o @ @ @ @ @ @ @ # - # # ,   L s.d.d.d.d.d.d.d.d.~ . . & @ @ @ @ o @ @ @ @ @ @ @ @ @ - - @ @ @ @ o o @ o @ @ @ @ @ @ @ @ @ ",
"@ @ @ @ @ @ @ @ @ @ @ @ # * < . < 3 t t t t e t t 6 t < . * = o @ @ @ @ @ - @ @ @ @ @ @ @ - - @ @ @ o o o o o @ @ @ @ @ @ @ @ @ ",
"@ @ - @ - @ - @ @ @ @ - # * . < , , .   . , ,   , <   . . < * & @ # - @ @ @ - @ @ @ @ - - @ @ @ o o o o o @ o o o @ @ o @ @ @ @ ",
"- - @ - - - # @ @ @ @ @ O <   l .... . . . . . . . .....( 8 . , % @ - @ @ - - @ @ @ @ @ @ @ o o o o o o @ @ @ @ @ @ @ @ @ @ @ @ ",
"@ @ - @ @ - - - @ o - o O * * _ $.$.$.$.$.$.$.$.$.$.$.$.#. .< , + - @ - - - - - @ @ @ @ @ @ @ o o o o o o @ @ @ @ @ @ @ @ @ @ @ ",
"@ @ - @ - - - @ @ @ @ @ $ *   ) @.@.@.@.@.@.@.@.@.@.@.@.#.X.< , % @ - @ - - - - @ @ @ o o @ o o o o o o o @ @ @ - @ @ @ @ @ @ @ ",
"@ - @ - - @ - - @ @ o o @ < . q k k k k k k k k k k k k k d . . = @ - @ @ - - - @ @ @ o o @ @ @ @ o @ @ @ @ @ @ @ @ @ @ @ @ @ @ ",
"@ @ @ - # - - - @ @ o o O * <   , ,   , .   . , . . * . . , . < $ @ @ - - - - @ @ @ @ o @ o @ @ @ @ @ @ @ @ @ o @ o o @ o @ @ @ ",
"@ @ @ # @ - ; - - @ @ @ o = * * * * * * * * * & * * * * & * * = - @ @ # @ - ; - @ @ @ @ o o @ @ o @ @ @ @ @ - - @ @ o @ o @ @ @ "
};
