/* XPM */
static char *f9b12149924a439b8a2864f742fc04e7W0j60RbQXo0dczX2[] = {
/* columns rows colors chars-per-pixel */
"64 64 119 2 ",
"   c #000001",
".  c #090705",
"X  c #0B0907",
"o  c #03000B",
"O  c #0E0B09",
"+  c #130E0A",
"@  c #15110D",
"#  c #1A140F",
"$  c #050114",
"%  c #070118",
"&  c #09011C",
"*  c #1D1610",
"=  c #1D1812",
"-  c #231B14",
";  c #291F17",
":  c #2C2017",
">  c #2B231B",
",  c #31261C",
"<  c #35291E",
"1  c #0D0125",
"2  c #0F0228",
"3  c #100227",
"4  c #13022C",
"5  c #170330",
"6  c #180331",
"7  c #180930",
"8  c #352C22",
"9  c #3A2D21",
"0  c #3D3124",
"q  c #3F3528",
"w  c #422F22",
"e  c #433326",
"r  c #433629",
"t  c #453A2C",
"y  c #4B3A2B",
"u  c #523F2E",
"i  c #583F2E",
"p  c #59402E",
"a  c #4C4030",
"s  c #544231",
"d  c #5C4634",
"f  c #564937",
"g  c #5F4A37",
"h  c #614633",
"j  c #644D39",
"k  c #6E4F39",
"l  c #63523D",
"z  c #6A523D",
"x  c #70513B",
"c  c #6F5640",
"v  c #6C5B44",
"b  c #715740",
"n  c #745B43",
"m  c #7A5C44",
"M  c #715F48",
"N  c #7D6047",
"B  c #74624A",
"V  c #7E6148",
"C  c #7C684E",
"Z  c #7F6B51",
"A  c #805C42",
"S  c #896247",
"D  c #84664B",
"F  c #8A6A4E",
"G  c #976C4E",
"H  c #816D52",
"J  c #8D6D51",
"K  c #867155",
"L  c #887256",
"P  c #8D7659",
"I  c #8F795B",
"U  c #947254",
"Y  c #9B7454",
"T  c #9A7758",
"R  c #937C5D",
"E  c #9F7A5B",
"W  c #9E7C5C",
"Q  c #A07353",
"!  c #A47857",
"~  c #A37C5C",
"^  c #A37D5D",
"/  c #A97F5D",
"(  c #977F60",
")  c #A7815F",
"_  c #AB815F",
"`  c #9C8463",
"'  c #9D8464",
"]  c #A18161",
"[  c #AA8361",
"{  c #AE8664",
"}  c #AF8764",
"|  c #A38967",
" . c #AF8864",
".. c #A68C69",
"X. c #A88E6B",
"o. c #A98F6C",
"O. c #B08865",
"+. c #B18B67",
"@. c #B28C68",
"#. c #B38D69",
"$. c #AA906C",
"%. c #AC916E",
"&. c #AD926E",
"*. c #AE936F",
"=. c #AF936F",
"-. c #B5916C",
";. c #B8956F",
":. c #B19570",
">. c #B29771",
",. c #B99670",
"<. c #B59873",
"1. c #B79A74",
"2. c #B99871",
"3. c #BB9E77",
"4. c #BE9F77",
"5. c #BD9F78",
"6. c #BEA179",
"7. c #BFA179",
"8. c #C0A27A",
/* pixels */
"4 4 5 4 4 4 4 5 4 4 2 4 2 2 2 2 2 2 & % % o   o $ & 4 4 4 4 4 4 4 4 4 4 4 4 4 5 2 2 2 4 2 2 1 1 1 2 1 2 2 2 4 2 5 4 5 2 2 4 4 4 ",
"4 5 4 4 4 4 4 4 4 2 2 2 2 1 % o                       & 4 4 4 4 4 5 4 4 4 4 4 4 4 2 2 2 2 2 1 1 1 1 2 1 2 2 4 4 4 4 5 2 5 4 2 5 ",
"4 4 4 4 4 4 5 4 4 2 2 & o         O ; y v R ..P M >       & 2 4 4 4 4 4 4 4 4 4 4 4 2 2 2 2 2 1 1 1 1 1 2 2 4 4 4 5 2 5 4 2 4 4 ",
"4 4 4 4 4 4 4 4 4 4 %     # s m U O.O.O.8.8.8.8.6.6.( 9       % 2 4 4 4 4 4 4 4 4 2 2 2 2 1 1 1 1 1 1 2 2 2 2 4 4 2 5 2 4 5 2 2 ",
"4 4 4 2 4 4 4 4 4 1     z  .} } } } } 1.8.8.8.8.8.8.8.8.' t       $ 1 2 4 4 4 4 4 4 4 4 2 1 1 $ $ 1 1 2 2 2 4 4 4 4 4 4 5 5 2 2 ",
"4 2 2 4 4 4 4 4 4     z O. .} } } } O.8.8.8.8.8.8.8.8.8.8.6.$.y .     $ 2 4 4 4 5 4 4 4 2 1 &     $ 2 2 2 4 4 2 2 4 4 4 2 2 4 2 ",
"4 2 2 4 4 4 4 4 $   < } } } } }  .} ,.8.8.8.8.8.8.8.8.8.6.8.8.8.$.f .     $ 4 4 4 4 4 4 2 2 1     & 1 2 2 2 4 4 4 4 2 4 5 2 5 2 ",
"4 4 4 4 4 4 4 1   O E } } } } }  .O.6.8.8.8.8.8.8.8.8.8.8.8.8.8.8.6.-.l +     o 2 4 4 5 2 2 1 1 1 1 1 1 2 4 5 4 1 $ o % 2 5 5 2 ",
"4 4 4 4 4 4 2     x } } } } } }  .,.6.8.8.8.8.8.8.8.8.8.8.8.8.8.8.8.8.8.3.v @     o 2 4 4 2 2 1 4 1 1 2 4 4 1 o           4 4 4 ",
"4 4 4 4 2 2 %   8 O.} } } } } [ n ' 6.8.8.8.8.8.8.8.8.8.8.8.8.8.8.8.8.8.8.8.3.B =     3 4 4 2 2 4 1 2 2 3 o     @ j J -   & 4 5 ",
"4 6 4 4 4 &   O ~ } } } } } } e   X 1.8.8.8.8.8.8.8.8.8.8.8.8.8.8.8.8.8.8.8.8.8.1.:   % 4 4 4 3 1 1 2 2 o   + l  .} } D     4 4 ",
"4 6 4 4 4     x } } } } } } } 9     =.6.8.8.8.8.8.8.8.8.8.8.8.8.8.8.8.8.8.8.8.8.6.R   o 4 4 3 4 2 2 2 &   @ ~ O. . .} } -   1 4 ",
"6 4 4 4 $   < O.{ O.{ O.} } } ( v K 6.6.8.8.8.8.8.6.o.%.6.8.8.8.8.8.8.8.8.8.8.8.8.H   o 4 4 4 4 2 4 2 %   s { { { O.{ O.c   o 4 ",
"4 4 4 1   O ~ O.O.{ O.{ } } O.4.8.8.6.6.8.8.8.8.%.>     > $.8.8.8.8.8.8.8.8.8.8.6.t   & 4 4 4 4 4 2 4 $   N {  .O.{ O.{ [ O   4 ",
"2 2 4     x } O.{ O.{ { O.O.-.8.8.8.8.8.8.8.6.6.>   . .   > 8.8.8.8.8.8.8.8.8.6.R     4 4 6 6 4 4 4 4     ) { O.{ O.{  .{ -   1 ",
"4 4 %   < } } { O.{ { { { O.4.8.8.8.8.8.8.8.6.-.  . E T .   >.6.8.8.8.8.8.8.8.6.=   & 4 4 6 4 6 4 4 2   : _ O.{ O.{  .{ U .   4 ",
"4 &   X E O.{ O.} } } } } } 8.8.8.8.6.6.8.8.8.>.    T U .   -.6.8.8.8.8.8.8.6.v   o 4 4 4 5 6 6 6 6 3   u } } } } }  .~ @   % 4 ",
"4 o   b  .{ O.{ } } } } O.@.8.6.v 8 = r R 8.8.8.8         8 8.8.8.8.8.8.8.8.%.X   2 4 4 5 4 5 6 6 6 &   n  .} } } } } >   o 4 4 ",
"1   #  .{ O.{ O.} } } }  .O.5.8           B 8.8.-.0     q =.8.8.8.8.8.8.8.8.t   $ 4 4 4 4 4 4 6 5 6 1   e [  . .} } e     2 4 2 ",
"1   ,  .O.{ O.{ } } } } } } l   O g D e   . X.8.6.6.6.3.6.6.8.8.8.8.8.8.6.R     4 4 4 4 5 5 4 4 4 4 3     . 0 m U s     2 2 4 2 ",
"4   X ^ { O._ O.} } } } } } :   j { { { -   B 6.8.8.8.8.8.8.8.8.8.8.8.8.4.-   % 4 4 4 4 4 4 4 4 4 4 4 4 o             2 4 2 4 2 ",
"4 $   e O.{ O.O.} } } } } } @   F O.{ { y   f 8.8.8.8.8.8.8.8.8.8.8.8.8.v   o 4 4 4 4 4 1 % 2 4 4 4 4 4 4 3 & o   o 2 4 4 2 2 4 ",
"4 3     D _ O. .} } } } } } <   y { O.[ +   C 8.8.8.8.8.8.8.8.8.8.8.8.=.O   3 4 4 6 4 o       % 4 4 4 4 4 4 2 4 4 4 4 4 4 4 4 4 ",
"4 4 %   = O.{  .} } } } } } V     : s @   # 1.8.8.8.8.8.8.8.8.8.8.8.8.t   % 4 4 4 4 &   + y X   3 4 4 4 2 4 4 4 4 4 4 4 4 4 4 4 ",
"6 6 4 o   g  . . .} } } } } } d         @ ( 6.8.8.8.8.8.8.8.8.8.8.8.K     2 4 4 4 4 $   b } y   & 4 4 5 4 2 4 4 4 4 4 5 4 5 5 5 ",
"6 6 5 3   . Y  . .} } } } } } } J j y z ~ ,.8.8.8.8.8.8.8.6.8.8.8.L X   1 4 4 4 4 4 %   > m #   1 4 5 4 4 4 4 4 4 4 5 4 5 5 5 6 ",
"5 5 4 4 &   < O.} } } } } } } } O.{ { { } } -.8.8.8.8.8.6.6.' v >     & 2 4 4 2 4 4 2         o 4 4 4 5 4 4 4 4 4 5 6 6 5 5 5 5 ",
"4 4 4 4 3     m } } } } } } } } { O.{ O.}  . .@.6.8.| B r +       o & 4 4 3 4 2 4 2 4 2 % $ % 4 4 4 5 4 4 4 4 4 4 4 4 5 5 5 5 4 ",
"5 4 4 4 4 &   @ [ } } } } } } } O.{  . .} O.Y c e @         o & 3 4 4 4 2 4 2 4 2 4 4 4 2 4 4 2 3 2 4 4 4 4 4 4 4 4 5 4 4 4 5 5 ",
"5 4 4 4 4 4 o   u } } } } }  . .{ O.~ n y #         o % 1 4 4 5 4 4 4 4 4 4 2 2 2 4 4 4 4 4 2 2 4 2 2 4 4 4 4 4 4 4 o 4 5 4 4 4 ",
"4 5 5 4 5 4 3     J  .} } } ) N y -           $ 1 3 4 5 4 4 4 4 5 5 5 4 4 4 4 1 o 1 4 4 4 4 2 4 2 2 1 1 4 4 3 4 4 1   4 5 4 4 5 ",
"5 5 4 5 4 5 4 %   X j n s ;           $ & 2 4 4 4 4 4 4 4 4 4 5 5 4 6 6 4 4 4       2 4 4 2 4 2 &         1 4 4 4 4 5 4 4 4 4 4 ",
"4 6 4 4 4 5 4 4 %             $ % 1 1 1 4 2 2 4 4 5 5 4 4 4 4 4 4 5 4 4 4 4 4 &   $ 2 2 2 2 2 $     . @     1 4 4 4 4 4 4 4 4 4 ",
"5 4 4 4 4 4 4 4 4 & % o % 1 1 1 1 1 1 1 2 2 4 4 4 4 4 4 4 4 4 4 5 4 4 4 4 4 4 4 2 2 4 2 2 1 o   O K 3.1.a     4 4 4 4 4 4 4 4 4 ",
"4 4 4 4 4 4 4 4 4 2 2 2 2 2 1 1 1 1 1 1 2 2 2 4 4 4 4 4 4 & & 2 4 4 4 4 4 4 4 4 4 4 2 4 &     - X.8.6.6.6.>   & 4 4 4 4 4 4 4 4 ",
"4 4 4 4 4 4 4 4 4 4 2 2 2 1 1 1 1 1 1 2 2 2 4 4 4 4 4 4         & 4 4 4 4 4 4 5 4 4 2 %     t 3.8.8.8.8.6.`     4 4 4 4 4 4 4 4 ",
"4 4 4 2 3 4 4 5 4 4 4 4 2 1 1 1 1 1 1 1 2 4 4 2 4 4 4 %   - e     2 4 3 4 4 4 4 4 4 %     v 8.8.8.8.8.8.8.8.r   % 4 4 4 4 4 2 4 ",
"4 4 4 $   4 4 4 4 4 4 4 2 1 1 1 1 1 2 1 2 2 4 4 4 4 4     F } <   1 2 4 4 4 4 4 4 o   O I 8.8.8.8.8.8.8.8.8...    1 4 4 4 4 2 2 ",
"2 4 2 1 & 4 4 4 4 4 4 4 4 2 1 % o   o % 2 4 4 4 4 4 4 %   0 b O   1 4 4 4 4 4 4     - W 8.8.8.8.8.8.8.8.8.8.8.f   $ 4 4 4 4 4 4 ",
"4 4 4 4 4 4 4 5 4 4 4 1 %                 2 4 4 4 2 4 1         $ 4 4 4 4 4 &     0 [ ;.8.8.8.8.8.8.8.8.8.8.8.1.O   1 4 4 4 4 4 ",
"4 4 4 4 4 4 2 4 3 $         O e n ) U -     2 4 4 4 4 4 2 % $ & 4 4 4 4 4 $     j } } ,.8.8.8.8.8.8.8.8.8.8.8.8.v   o 4 4 4 4 4 ",
"4 4 4 4 4 4 2 $       - s F } } } O.} [ e     2 2 2 4 2 4 4 4 4 4 4 4 4 o   O D } } } 3.8.8.8.8.8.8.8.8.8.8.8.8.6.#   1 4 4 4 4 ",
"5 4 4 4 4 4 &   . i Y } O.} } } } } } } } +   2 2 4 4 4 4 4 4 4 4 5 4 o   - T } } } } 4.8.8.1.8 - ' 8.8.8.8.8.8.6.H     4 4 4 4 ",
"4 6 5 4 2 4 $   h Q } } } } } } } } } } } -   1 2 2 4 2 3 4 4 4 5 4 1   . T } } } } O.8.8.6.Z     f 8.8.8.8.8.8.6.8.>   % 4 4 4 ",
"4 4 4 4 4 2 o   A Q [ } } } } } } } } } ~     4 4 2 2 2 2 4 4 4 4 5 o   z  .} } } } @.8.8.8.>.# O I 8.8.8.8.8.8.8.8.(     2 4 4 ",
"4 4 4 4 4 2     Y Q / O.} } j s } } } } n   o 4 2 2 2 1 2 3 4 4 4 3   O }  .} } } } @.8.8.8.8.8.3.6.8.8.8.8.8.8.8.8.6.q   % 4 4 ",
"4 4 4 4 4 2   + Q Q / }  .} = . } } } } e   & 4 3 2 2 2 2 4 4 4 4 %   y } } } } } } -.8.8.8.8.8.8.8.8.8.8.| f I 8.8.6....   3 4 ",
"4 4 4 4 4 1   : Q Q ! } } } ~ U } }  .} #   4 4 4 2 2 2 2 2 4 4 4     D } } } } } } ;.8.8.8.8.8.8.8.8.8.8.>   . 3.8.6.6.s   $ 4 ",
"4 4 4 4 4 &   w Q Q ! } } } } } } } } T     4 5 4 4 4 3 2 4 4 4 2   O } } } } } }  .@.8.8.8.8.7.8.8.8.8.8.0   @ 3.6.8.8.K   $ 4 ",
"2 4 4 2 4 %   p Q Q ! ~ m [ } } } } } z   % 5 5 5 4 1 4 4 4 4 2 %   y } } } } } O. . .P Z ..8.6.8.8.8.8.8.1.C $.8.8.8.6.B   $ 4 ",
"2 2 2 2 4 o   x Q Q Y +   9 } } } } } <   3 5 5 5 o   $ 4 2 2 2     D } } } } } } [ >       v 6.8.8.8.8.8.8.8.8.8.8.8.o.@   % 2 ",
"2 2 4 2 3 o   S Q Q G .   ; } } } } } O   4 4 5 5     o 4 2 4 2   + } } } } } } } s   O 8     ' 8.8.8.8.8.8.8.8.8.8.` @   o 2 4 ",
"4 4 4 2 2     Y Q Q Q k e F / / ! Q A   o 4 4 5 4 4 % 3 4 2 2 %   r } } } } } } } ;   K 6.q   j -.3.8.8.8.8.8.8.8.L .   o 2 2 4 ",
"4 4 4 4 2   + Q Q Q Q Q Q Q Q Q Q Q i   % 4 4 4 4 4 4 4 4 4 4 o   D } } } } } } } ,   s ' *   x } } O.,.6.8.8.6.M     % 4 4 2 4 ",
"4 4 4 4 1   : Q Q Q Q Q Q Q Q Q Q Q ;   1 4 2 4 4 4 4 4 4 4 4     F } } } } } } } V         + [ } } } } O.;.5.f     & 4 4 4 4 4 ",
"4 4 5 4 &   * Q Q Q Q Q Q Q Q Q Q Y     2 2 4 4 4 4 4 4 4 4 4 %   s } } } } } } } O.n - + 8 T } } } } } O.[ 9     1 4 4 4 4 4 4 ",
"6 5 5 4 4     # < w i h k x S Y Q p   o 4 4 4 4 4 4 5 4 4 5 5 4     y ~ O.} } } } } } } } } } } } }  .} ~ ;     1 4 5 4 5 5 5 5 ",
"6 6 5 4 4 2                           3 4 4 4 4 4 4 5 5 5 5 5 5 1     . u ~ } } } } } O.} } } } } } } U @     2 4 4 4 5 5 5 5 6 ",
"5 5 5 4 4 2 3 1 1 & % $ $ $       o 3 4 4 4 4 4 4 5 5 5 5 5 5 5 5 4 $     . u ~ } } } } } } } } } } D O   o 4 4 4 4 5 5 5 4 5 5 ",
"4 4 4 4 2 4 4 2 3 4 4 4 4 4 4 4 4 4 4 4 5 4 4 4 4 4 5 4 5 5 5 4 4 4 4 3 $     . u W } } } } } } O.x     % 4 4 4 4 4 5 5 5 5 5 4 ",
"4 4 4 4 4 4 4 2 2 2 4 4 4 3 4 2 2 3 4 4 4 4 4 4 4 5 4 5 4 5 5 5 4 4 4 4 4 2 o     . u ~ } } } } f     % 4 4 4 3 4 4 4 5 4 5 5 4 ",
"5 4 4 4 4 4 2 4 4 4 4 4 4 4 2 4 2 2 2 4 1 4 4 4 4 4 4 5 4 5 4 4 6 4 4 4 4 4 2 1 $     . s J J 9     & 4 3 4 4 4 4 4 5 4 5 4 4 5 ",
"4 5 6 4 4 4 4 4 2 4 4 4 4 4 2 4 2 2 2 2 4 4 4 4 4 7 5 4 5 4 4 5 5 4 6 4 4 4 4 4 2 1 o             % 4 4 4 4 4 4 4 5 4 5 5 4 4 4 ",
"5 5 5 5 4 4 4 3 2 2 2 4 4 3 2 2 2 2 2 2 4 4 4 4 4 4 5 4 4 4 4 4 4 5 5 5 4 4 4 2 4 2 4 1 % o   $ 1 2 2 2 4 4 4 4 4 4 5 4 4 4 4 5 "
};
