/* XPM */
static char *_ed73585aba64822d91a6699a6b668d0OvNMCrpmjuvKH3pF[] = {
/* columns rows colors chars-per-pixel */
"64 64 255 2 ",
"   c #030D01",
".  c #081C03",
"X  c #0B2705",
"o  c #112708",
"O  c #132C0C",
"+  c #0D3604",
"@  c #123404",
"#  c #133C05",
"$  c #14340A",
"%  c #143C0C",
"&  c #1A3809",
"*  c #1B3C0B",
"=  c #162B12",
"-  c #1A3B14",
";  c #203E08",
":  c #144304",
">  c #164806",
",  c #1B4A05",
"<  c #15440B",
"1  c #1C430B",
"2  c #1C4C0B",
"3  c #1C5405",
"4  c #185806",
"5  c #1D540B",
"6  c #1C5B0A",
"7  c #174413",
"8  c #1B4414",
"9  c #1D4C13",
"0  c #1D4B1B",
"q  c #1C5312",
"w  c #1D5718",
"e  c #27460C",
"r  c #224C0D",
"t  c #265708",
"y  c #23540D",
"u  c #245B0C",
"i  c #2A5C0C",
"p  c #224C14",
"a  c #264818",
"s  c #234C1B",
"d  c #245414",
"f  c #2A5514",
"g  c #245B13",
"h  c #2A5C14",
"j  c #23541B",
"k  c #2B541B",
"l  c #245C1B",
"z  c #2C5B1C",
"x  c #315510",
"c  c #325A17",
"v  c #325D1C",
"b  c #1E630B",
"n  c #1B6419",
"m  c #286806",
"M  c #24620B",
"N  c #2A630B",
"B  c #2C6B0C",
"V  c #326B07",
"C  c #2C740B",
"Z  c #34760A",
"A  c #246415",
"S  c #2B6414",
"D  c #2C6B14",
"F  c #24631B",
"G  c #2C641C",
"H  c #256A18",
"J  c #2D6B1C",
"K  c #326413",
"L  c #336B12",
"P  c #33641C",
"I  c #336B1C",
"U  c #396A1B",
"Y  c #2B7515",
"T  c #2E721B",
"R  c #3B7C15",
"E  c #357718",
"W  c #33721D",
"Q  c #3C7C1C",
"!  c #1C5123",
"~  c #254A24",
"^  c #2C5423",
"/  c #275926",
"(  c #2B5C23",
")  c #345C25",
"_  c #2E5B32",
"`  c #266424",
"'  c #2B6423",
"]  c #266A26",
"[  c #2C6B23",
"{  c #2C642A",
"}  c #2D6C2B",
"|  c #336323",
" . c #336C23",
".. c #3A6C23",
"X. c #33642B",
"o. c #3A6528",
"O. c #336B2B",
"+. c #3C6C2B",
"@. c #2A7527",
"#. c #2D722C",
"$. c #347324",
"%. c #3B7324",
"&. c #357A23",
"*. c #3B7B24",
"=. c #33732C",
"-. c #3B722C",
";. c #357B2B",
":. c #3C7B2C",
">. c #2D6533",
",. c #356737",
"<. c #326C34",
"1. c #3B6C33",
"2. c #2D7131",
"3. c #2F7D33",
"4. c #347334",
"5. c #3C7333",
"6. c #357B33",
"7. c #3C7C33",
"8. c #34743B",
"9. c #3B743A",
"0. c #357A3A",
"q. c #3C7C3B",
"w. c #43791A",
"e. c #446A2D",
"r. c #427523",
"t. c #427B25",
"y. c #42752D",
"u. c #49772C",
"i. c #427B2B",
"p. c #486E34",
"a. c #437434",
"s. c #437B34",
"d. c #447D3B",
"f. c #4A7838",
"g. c #3C6841",
"h. c #3B7D43",
"j. c #3B7946",
"k. c #447B46",
"l. c #457F53",
"z. c #39840B",
"x. c #3B851A",
"c. c #3C8224",
"v. c #3C832C",
"b. c #39882A",
"n. c #3C942E",
"m. c #3C8333",
"M. c #398936",
"N. c #3D833B",
"B. c #3D9439",
"V. c #4E8F11",
"C. c #458918",
"Z. c #48951C",
"A. c #609D18",
"S. c #69A317",
"D. c #468A27",
"F. c #43832C",
"G. c #4B832D",
"H. c #51882B",
"J. c #499628",
"K. c #53982B",
"L. c #448334",
"P. c #4A8433",
"I. c #458D34",
"U. c #4B8C33",
"Y. c #43833B",
"T. c #4B843C",
"R. c #448B3C",
"E. c #4A8B3C",
"W. c #568738",
"Q. c #538D3C",
"!. c #42953A",
"~. c #4A9538",
"^. c #559838",
"/. c #659A27",
"(. c #669936",
"). c #51A337",
"_. c #58A436",
"`. c #62A827",
"'. c #6AA636",
"]. c #6FAE34",
"[. c #3D8243",
"{. c #3A8846",
"}. c #3D9148",
"|. c #3B8954",
" X c #448444",
".X c #4B8343",
"XX c #448B44",
"oX c #4B8C44",
"OX c #43844B",
"+X c #4B854A",
"@X c #448B4B",
"#X c #4C8C4B",
"$X c #538C45",
"%X c #558A4A",
"&X c #449344",
"*X c #4B9345",
"=X c #4B9B43",
"-X c #45974A",
";X c #4B934B",
":X c #4C9A4C",
">X c #539543",
",X c #529A43",
"<X c #589849",
"1X c #488755",
"2X c #4B8C52",
"3X c #538C53",
"4X c #4C9354",
"5X c #489755",
"6X c #4D9C5B",
"7X c #549B54",
"8X c #579856",
"9X c #52935D",
"0X c #64984A",
"qX c #639C55",
"wX c #4BA34A",
"eX c #57A547",
"rX c #53B64B",
"tX c #4EA558",
"yX c #54A354",
"uX c #5BA857",
"iX c #53A35C",
"pX c #53AA5B",
"aX c #59B45B",
"sX c #64A648",
"dX c #72B14C",
"fX c #65A758",
"gX c #67B758",
"hX c #598F65",
"jX c #4C9963",
"kX c #579B66",
"lX c #4DA463",
"zX c #54A363",
"xX c #59A768",
"cX c #5AB566",
"vX c #5BAA74",
"bX c #5DB575",
"nX c #64A867",
"mX c #67B667",
"MX c #74B66C",
"NX c #64AC75",
"BX c #66B877",
"VX c #6DC456",
"CX c #67CE75",
"ZX c #6AC678",
"AX c #71C972",
"SX c #82C23C",
"DX c #84CE74",
"FX c #63AF82",
"GX c #69B587",
"HX c #6DC687",
"JX c #73C988",
"KX c #76CE90",
"LX c #7BD79E",
"PX c #82D084",
"IX c #89E88E",
/* pixels */
"D <X| I P.Y.+.s.P x ; $ T.%X- d &.kXhX2XxX1Xj.kXJ o = 1./ { =.4 > + t i.F.N P 5.J.x.A 2 yXZX5.X + X , ) j -Xb.I U  X/ | +.@ z k ",
"I.,X%.oXfXP.k i.r.c * * -.7.k < g 9.<.xXbXjX>.4Xm.w > F 4.Y.Y C C > =.&.h C L y I.J.C + z $Xq.j # u i.O.*.:XY.D U l { I u N D I ",
"7.mXt.^ nXQ.W u f d 5 y G gX,X0.q./ 1XNXBXzX>.[ J F H ] d.m.b.!.F X  XP.@ F.R B ~.V.C m Z %.-.J i G.*XyXY.s.y.d %.[ ;XR.y L %.eX",
"b H < . $ X.L.T q G D m Z I.*XU.d.8 ,.8XnX%X,.[.j l [ ] A W }.cX0.>.=.A * J.V.z.t V Z A.`.^.` 4. .:.=.:X5.h z h.XX#.7X7Xu f d.gX",
"4 + X X X 4.nXXX:.7.i.m E Q &.P.P.h r ( a.d.1X.Xk q NXyXF B.-XlXbXtXN.h &.eX`.V.Z E R ].dXgXiX4X;.T =XbXOX: j N.j.- { *.* a O.W ",
";.# + 4 D <XBX6.L.oXF.H.].].*X+X0 l G 6.m.j.kX9X=.O.xXO.6.KXZX8.` }.pX' pXaXI.I.N.[.0 :XcXHXxX#.&XwX=.} [ > [ :X6X0 9 T 3 g &.b.",
"aXb.6 6 5 $.XXzX7.@.d r.S.S.^.<XOX5.' ;.O.~ j.@X' ( ~ #.] vX9X# + xXcXs j.KXBXq.#X4X5X:XtXtX| } =.T.@.@.m.;.4.4.<.>.8.<.D !.n.wX",
"yXD.Y M : A @XMXY 5 o r x V w.t.9X6.5XkXX   >.m.7X>.! }.M.F =.G.z 1X4X2 - { <.,.%Xd.cXxXN.-X[  .D h t 8 2.tXbXjX_ |.jX' D.cXpX~.",
"9 g R.!.1 h |  .D M < 2 5 7.L d 2XJ {.hX  o 2X#XGXj.|.cX!.T w./.G J ' $.D w : < w z *.- ( AXN.5 H A A n.wX5XGXJXjXGXGXs.<XKXHX) ",
"@ l BXcX0 a U g q 0.2.{.;.L.XX;XO.1.| a $ - +XBXvX|.lXxXM.B.q A v.I.- fX7X0 h.{.}./ t h A L.;.B.!.n.x.wXJXZX}.iX8.GXNXo.| kXkX0 ",
"p ( NX&X#.( k % X FX1X1X6X8 k.uX' F G q ` 2.2XjX{ 4./ % {.ZX9., c.$.+ :.qXG 6XvXzX4.r F. .&.wXL.M.aXVXJ.@.cXY.@.A F w k a ) ) z ",
"s e s g v. XOXOX< 9Xg.7 7.6 h Y.B.M.F {.{.2.0.` l v.< 7 -XHXO.A T  .t 5 %.v 5.-X-XD z $.c.~.aX- 7 VXCXI.X J &XXXc.C  .5.o.~ ) 9.",
"X.O.[ } ,XfXOX%Xy  .G < M Y @.oXXXwXw FXHXtXcXM.b.M.] -X}.0.v. .7.nX2 6 H w = / -XwX] $.J h a.# n >XmX .X $.BXl.K uX[.7 XXm.p.%X",
"%XN.XX-Xk.3X1.9 < ' 6.$.B T -XzX!.~.6 4.vXbX@.6 n.M.] lXbXl u @ 2 *Xl { zXFX~ XXKXZX<.c.Q + # , 5 *.J I t 0XJXk. .uX{ $ [.6Xk e.",
"<XI 7.1.X ^ 8Xd + @.5XO / pX:XM.T $.D > 6.w 7 2.!.}.|.7 q.9 , > g b.Y.- 1.g.~  XKXcXl $.K.M D J.Y C N W /./.yXv.i.s.;X6X<.8 O | ",
"r.f < 1 * ^ XXH n :XxX- l.pXb.&.x.D K b.cX}.H 0.tXbX}.w # < k I (.dX`.K u * 1 Y.*.% y B C.U ( f.$.J.E u c z m.=XW m.;X*X=.< 7 ' ",
"~ - > 2 d / ` B.#.@XBX9.( &.=XmXwXS Y Y ] ! @.@.bXxX` N.=.F  .v.r.f.(.(.<XP.k { o X q *.P 5 # % 9 c.D 1 z .XR.aXI.:.cX' 4./ ` #.",
"|.l H g 1.| w pX{ # ` }  .;XBXuXJ.!.B.wX-X}.tXwX&X] ] w M.-XXXT.s.' u.W.SX`.S 6 : # * u.1.u > N.=XM.G & j  XN.wXq.0 &XN.OX{.OX[.",
"kX8.[ d )  .b.!.v.l F XX4X,.< D rXaXaXcXLXKXtXwX` iXbXh.` 8X Xs.$X;XiXU.A.`.R.!.L.I z f k i A NXBXwX!.' =.;.G z 9 < -.hXkXl.1XjX",
"j.<.A < $ 0.-XaXcXcX6.@Xk.# : h b.tXbXcXLXpX] < 7 GXLXxXs o.a.p._ uXfXi.r.x.oXU.H.$X+.@ | | 2 ~ 1.wXyXtX@XI.y o 1 y ` k.k._ _ 9X",
"] h.2.w { {.iXuX=.1.[ S r.t # # G xXBXv.}. .3 # #  XKX1X^ p.p.a # f.Q...R C.b.S S T.a.p u.+.$ . / BXcXbXXX^.Q * < )  .j ~ { % 8 ",
"2.9X5X] 2.[.cXAX*X$ % v x x r d j bX-Xh A 5 4 , S h +.c c ..u.x d i N B Z.K.:.h a -.uX7XP.z + . $ iXHXkXa q.Q.( r +X9Xk.2X4.8 7 ",
"[.>.}.M.3.8.NXKXmX-   - & f.C.u.d.oX9 s.o.( I ' >Xp @ ) ) U p.e.F.x.x.D.J.^.yXR.I 7.^.:.k h - X X G %X^ e c T.k , +.{  X8.OX<.,.",
"NXOX5XlX5X/ ^ NXNX^ p.qXW.P.C.u a.&., r.&.s.-.j T.S q +.^ qXqX%Xr._.dXgXU.<X:XaXgXyXaXeXc = a ) j j J t f x c x N S A | [.BX{.8.",
"2X9XvXbX@Xw . $ s s 3XMX0Xw.m m Q z.m i Q _.gXT.%.Q $.| a nXW.p.p +.fXDXG.r f mXAXmXP.sXJ.& ) f.f.p U V L x L t.P z P.X.4XBX9.] ",
"{ ~ xXjX~ u g 9 f.5.zXmX/.C.z.C.J.Z.m : z.x.eXXXR.uXeX,X) u.W.x . & T.MXp : K gXPXfX< Q C.r d *.W.^ t Z C.R V w.g %.^.s. X X>.zX",
"_ o ,.O.S w.8 + 5.uXMXfXP Z.z.5 K.C.3 > J.gX:.9 2 oXT.P k 1 c : * U k %., t D...<XU.t u L g E c.f.a U C.R C.H.Z.:.U.<Xu.| s.8.xX",
"E u $ L C.^.{ / h ..+.= ( sXB > G 2 g 6 L.AXnXa S L e & 5 F z h N W U  .g y U t u , t 3 x.J.I.T.f.o ~ fX^.u.dX^.^ $XfXT.<. Xd ( ",
"_.K +.K.u { 8X^.Q N t , c.).3 X X , g o..XfX<Xa P u > : A ] k.o.S >XR.5.( W T $.W Z.x.z.J.sX~.F.R A F 0Xu.& p.e.a a..Xq.$.2 =.[.",
"r.e eXdXd g.xXyXQ t 3 D *.B m g 4 4 3 < o.r.U w.y ] M.F N.;.a.1.z T.E.a.T.<XU.>XK.K.'._.c.i.:.~.x.N p | f p X.%X%X3X3XX.{.( q.8X",
"M B Q Q.& & v ~.Z.Z.4 b.~.Y M  .U.$.:.T [ Y b y U #XFXq.<.5X[.+X X;XY.z d.qX) y.Q.oXG.fXyXP.a.,XR 5 ] [ j O.,.l.fX0X8 ` nXX.[ T.",
"D.K.Q x.Z B w.,XrX~.> m.mXaXR.d ( d k.qXT.b.C K Q.xXhXO.z 0 q..X%XnXP G F.-.8 i .X) & X.<X$Xk D.D.N.zXh.q._ j.,.e.e.O ' d.5 L G.",
"_.<XL i.F.N I q.~.x.6 q iXZXd.X + X p +.( =Xb.I r. X( | a.@ P v D 7X| I R.s.+.i.U r & $ s.%X- h Q kXkX9XxXj.j.6X@.o = 1.l d v ^.",
"K.<XL 6 y B L 6 I.J.C # z $Xq.j : u :.O.;.*XE.H I l } W M V Y W D.eX%.oXfXL.k i.r.v e - -.s.k < d 1.>.xXvX6X_ 9XM.l 4 [ 4.S k H.",
"Q.F.R Z Z J.z.m ^.V.Z m Z %.5.J i G.*XyXY.s.o.r -.[ :X*XM R v.eXXXmXt.~ nXQ.W i h d 3 d S aX,X4.9./ 1XNXBX8X<.] &.F b @.m.$.*.,X",
"0.0.&.%.J J.V.V.u V Z A.`.^.' 4. .:.J s.s.$X9.q.2X4X8X8Xu h oXgXY D 1 X % X.P.@.q J T m Z R.;XU.5.% k.kXnXE.X.;X( ] }.4.$.W !.cX",
"BXpXB.z @.wX).V.Z Z V.`.].^.;X6X} 5 T [ #XMXzXiX8XnX$.%.1 r :.Q b + . X X 9.nX*XF.Y.F.B Z t.T.K.G.K p k i.w.t.X.j.vXbXtX' B.}.lX",
"] }.aX] pXZXcXK.Z.C.].Z.N %.zXfXP 2 E m -.+X+XnX.X1.;.T 2 g *.M.&.+ + 5 B <XBX#.v.eX~.u B *.>X'.r.i.r.> C K.-.9 vXKXxX1X{.HXbX0.",
"+ vXmX0 k.LXJXgXT.r.VXSXE %.T.G.C.m m E 9.9 k %X~ s kX:.D !.n.wXaXb.4 4 2 I J , @.,X^.E D.v.o.Q.P >XsXw.sXDXMX+.9Xk.~ kXbXBX9X% ",
"g 2X4X2 < ,.%XT.- . %._.F.3 : g ^.I.g =XZX,Xr N # @ S V C.cXpX*XyXb.Y b # @.Y 3 T ^.gX_.^.mX| @ r 0X<Xk .Xf.uX>Xr $ . j.HXkX-.H.",
"l J G O.T F d N x     O y Z L ~.BX.Xp NXJXgXw.S.w.w.C.R <XKXHX) 8 g M.!.F B.@.b.M.m.eX_.K >XXX% @ +.a O o 1 t.<XP k X 0 kXq.w./.",
"v.I.e 8X:X0 3.L.H.@ * Z ~.<X| 8X<Xf e u.gX].A.V.w.^.K.y.o.8XnXp @ ` mXxX} =XB.cX:X X:.L.' L.*XG > 9 p 1 , r.K D r 8 9 d [.B.d f ",
"D.&.@ :.8Xz 9XkXD.x K Z U.X.X z r.U r.].(.`.A., k Q.F.z k ..O.' f | NXY.q XXR.iXX.y q %.U.eXfXc.5 p P i.L h y V u / 1.z {.ZX4.: ",
"@. .3 5 %.z X.R.w.i m t 2 % X p f.a a f.Q.<XfX..1 (.sXU...c +.P.z 1 j d $.#.-.7.9 $.F.eXsXD.<X^.&.t.r.%.c > g U L f..X1.;XBXO.G ",
"m.nX2 6 H w O / $XQ.R C.R k O @ r * & & $XMXAXf.r U ^.H.t e u.<X:.:.[ =.*XuX7.7.J :.T.fXdXD.d i.:.:.i.G.H.-.T.o.d o.a.k.[.#.*.$.",
"q ,XF =.zXNX~ [.AXMX$X*.v.J g r u 2 & @ T.MXfXi.*.W p t.G.u.v u.<XU.=X,X%X8X:X$.W y & P K.K.%.d 1 z ..Q.sX0X^.i.| h d | 6Xj y $ ",
"g b.XX- 1.g.~ k.BXfX$Xj m.=X).*.u K & r J Q.F.:.eX=.a.T.G.U * i.sX%.P.7.$ X.aXm.d 2 < 2 c D.+.7.s E.s.u.0X0X^.P.Q.^. .0 8.9 1 1 ",
"].dX'.K g % 1 s.*.G <X8 < pXAXU.g $. .-.h  .P.E.sXG nXqXU r < t.i.P 9 d 9 X.eXP.j ..i.| G  .P.fX( T.0X+.+.P.P.P ..P.2 7 : % k S ",
"i.f.'.'.sXs.+.<XL K T.& 2 oXmX%.% %.fX%Xf p $X~.^.S G T.i.' $.v.' p q g l { =.:.i...^.T.v.&.L.1.P G.T.r.o.Q.^.*.-.*.5 @.#.A  .:.",
"m. .p.(.SX`.P.>Xf @ # # y r. .G e W.PX%X%.P P W W I h L.l O.;XXX X' [ [ ] ] 0 } =.c e.5.4.%.' -.F.<X..I G G :. .1.=Xc.H M.&XXXR.",
"%X:XfXU.S._.I.R.P.A S D.Y m M U A.'.qX%X>XD.^.U.S i *.yX Xq.9X4X9X0.q.N.oX[.] }.M.I  .nXnX3XO.7X-.:.h h F M.wX/ / tXtXM.] pXoXd.",
"X.zXfXi.r.x.#XI.H.i.%.<Xc.J.E i U v $.G *.fXMX).h J J d 0 } ,.9Xk.2.@X XNX1X{.pX).c.:.k.NXnX X3X5.J $.J.x.6X|.|.m.xXZX5Xk e.P.f.",
"% f.Q. .U C.m.h c s.' ~ 9 v.E , k 5.7.m.;XhXR.J.).}.wXpXcX}.# 0 { 8. XkXNXOXkXGXB.n.[ - 9XnX+Xd.oX=X*X .B j 2.}.}.zXcX{ ) f.f.v ",
"d i M B A.Z.=.h a 5.l ;.!.n.J * ( ;XN.6.,.>.[ =XtXtXcXKXJX0.8 0 2.j.3XkX<.>.g.! M.ZXN.X 0 .XX.( XXMXmX( l q @.tXlX6X;XJ U ..u.^ ",
"s.C.R c.b.~.:XP.W A D ZXZXaX!.l $.-.[ { ^ ) d A @XzXh.HXtX@X<.9.OX>.h.M.w 3.< X M.HX0.< q } w < / nXoX- h.{.M.cXxX@X:X;. .U p.+.",
"r.^.sXsXD.<X;XaXgXR.G j.*XpXrXyX-XI.G 4.2 $ 9 J lXlX! >.k.cX{.j.xXOX}.|.M.M.n {.}.5X[.8.N.;X}.q j 6.j - jXvXj.0. X$X| < k qXqX0X",
"p o.qXDXi.e y mXCXmXy W U.ZXCXZX4X=XI.;XJ : 3 Y b.{ ! { 4XBX9.2.2X1XlXjXB.M.] lXvX0.6X@Xk.:X{.w 2 ! @.n k.1X9 w s.P.2.9 s fXW.f.",
"o O f.fXp : L gXIXMXr x.D.cXJXbX) E.U.F.*.B Z F.A { kXk.k.OX8.xX,.~ kX6XB.m.jX>.4X<.2Xj.- :.}.2.@.2.] H w % < w ] }.XXP.) p.W.v ",
"* v k U > y G...sX^.N m B =.mX;XO.P r.w.R F.K.C.$.T.nX9.1.-.O.kX_ = ,.OX5XiXNX<.< ) / w 9 x.x.6 !.!.w n b.4 ` [.l Y.a.v k > c e ",
"N W W I g y E i N u t t x.c.7XpXY.i.) fXH.i.dX(.^ .XqXT.O.:.5 ' ,.>.= ` cXFX2Xd.l k.,.7 ] eXm > I 6 ] |.}.3.6.~ h K e $ y F | K ",
"U >X~.9.| W E %.x.Z.Z.z.J.~.8XyXG J  .$Xu.& u.p.a a..X0.6.J 6 8.jXkX>.7 &X@X3X,Xx.Z P y c.~., X X , ' jXOX2.}.f h q : : H } .Xy.",
"v oX>Xs.$XuX~.>XK.).].`.c.%.a.I.x.g 9 | d r +.3X%X3X1XX.2X} H jXFXvXvX/ ]  XzXeXx.m t C x.M M g 4 4 4 9 9 g W w.y ` m.F N.m.d.k.",
"@XyXE.P E.fX| y.~.oXU.fXuXs.a.^.R 5 ] ] / -.,.8XdX0Xa ( nX' ' >.jXFXzXL.j ( v R.J.n.4 b.~.E u P P.$.:.J $.Y 4 r L OXFXN.,.4X@X8X",
"7XMX .I F.+.8 y $X,.$ p.<X$X( U.C.6.6Xh.[._ j.,.p.e.O j s.l j + >.kXF.Q Z V w.,XeX).: M.mXpXR.d { j .XqXE.n.C K $XkXhX| z ! d.<X"
};
