/* XPM */
static char *cf8bff9830274704fa71db2f45c53e5e0Qcg9hiYXROl2kQ9[] = {
/* columns rows colors chars-per-pixel */
"64 64 60 1 ",
"  c #15032E",
". c #14032D",
"X c #14022D",
"o c #13032C",
"O c #14062E",
"+ c #100229",
"@ c #0F0229",
"# c #0E0228",
"$ c #0F0228",
"% c #0E0127",
"& c #0D0126",
"* c #10032A",
"= c #11022A",
"- c #12022B",
"; c #13022D",
": c #11012A",
"> c #14032E",
", c #13022C",
"< c #11022B",
"1 c #0D0127",
"2 c #0C0126",
"3 c #14062D",
"4 c #12022C",
"5 c #10022A",
"6 c #0C0125",
"7 c #0A0124",
"8 c #12032C",
"9 c #0A0123",
"0 c #090123",
"q c #0B0225",
"w c #0B0124",
"e c #0B0125",
"r c #0E0528",
"t c #13042D",
"y c #13062D",
"u c #100129",
"i c #0E0128",
"p c #15032F",
"a c #0E0227",
"s c #0B0024",
"d c #13072C",
"f c #12062B",
"g c #0C0026",
"h c #11032B",
"j c #100329",
"k c #13042C",
"l c #16032F",
"z c #13032D",
"x c #170330",
"c c #160330",
"v c #180331",
"b c #190332",
"n c #12042B",
"m c #170530",
"M c #14042D",
"N c #16042F",
"B c #10012A",
"V c #180930",
"C c #12052B",
"Z c white",
/* pixels */
"   ..XoO++@++#$%%%&%*+=--; ;:--X > ..XoO++@++#$%%%&%*+=--; ;:--;",
" >;,,,,<=+@@#1%&212&#+<-,,X,3o,. >;,,,,<=+@@#1%&212&#+<-,,X,3o,.",
";,-4-,X,,5@@%%%67662%@<4.o-,84-4;,-4-,X,,5@@%%%67662%@<4.o-,8--4",
"===<-;.>X=@$#%290q61$+<,,--X4<=5===<-;.>X=@$#%290w61$+<,,--X4<=5",
"-,==4,;  ,5=$&e90r&%$=-4-=,;tyu=-,==4,;  ,5=$&e90q&i$=-4-=,;tyu<",
"4<5---,  X-=@&127wi$#=--<-,,,<554<5---,  X-=@&127ei$#=--<-,,,<55",
"=55---, p.,,=a&26e&@@=,,<--4,,4==55---, p.,,=a&26e&@@=,,<--4,,4=",
"-4,,,,;  ;XX<#22s66#@-X;4<--; ,--4,,,,;  ;XX<#22s66#@-X;4<--; ,-",
".X,,,<<44,,4-@&&d2&#+-4==<,,,,;;.X,,,<<44,,4-@&&d2&#+-4==<,,,,;X",
"  ,<=55=<;;,,-+#f&%a=4,=+<-<-,,X  ,<=55=<;;,,-+#f&%a=4,=+<-<-,,X",
"  X--==-,X. ,-=$g&1%=;-=+5-<4,4X  X--==-,X. ,-=$g&1%=;-=+5-<4,4X",
" p.--=<-,,. .-=5$##%+4-+@5-<=-4. p.--=<-,,. .-=5$##%+4-+@5-<=-4.",
"  X8h5---4. >,,===<@5--++@i@j=,X  X8h5---4. >,,===<@5--++@i@j=,X",
"4,4tk5--44.   >4--4-,-,=@$%1#=--4,4tk5--44.   >4--4-,-,=@$%1#=--",
"5=,4--=,;,X .>l>.,,,;.;,=+$%$=,-5=,4--=,;,X .>l>.,,,;.;,=+$%$=,-",
"-<4zz--4----, xxcl  . .,-=@1@=4--<4zz--4----, xxcl  . .,-=@1@=4-",
"4--,-<-,4,,4;xvvbvvxll> .,<$+-,,4--,-<-,4,,4;xvvbvvxll> .,<$+-,,",
"<<==-=-X4-;X cxxxvvvbvxxlX-=<--<<<==-=-X4-;X cxxxvvvbvxxlX-=<--<",
"@5=@+<4,,--; > ll lxbbvxc.---=5@@5=@+<4,,--; > ll lxbbvxc.---=5@",
"@55++--4;,4; >X>>... ll  .-<=+++@55++--4;,4; >X>>... ll  .-<=++5",
"=<=++=-,X,,;X-;.,444,.XX.>on555==<=++=-,X,,;X-;.,444,.XX.>on555=",
"-,,<=-;X .-<<=,,4--<-,-XX,zt<<5-4,,<=-;X .-<<=,,4--<-,-XX,zt<<5-",
"..,-<-,;  X<=<<-,;,<<-<44,,:-,-,..,-<-,;  X<=<<-,;,<<-<44,,:-,-,",
"l>.4=--,>pX-<--4X.>,<=<4,,;,,X.ll>.4=--,>pX-<--4X.>,<=<4,,;,,X.l",
"vxl,,-4,  >,--,,,; .4-<,..   llvbxl,,-4,  >,--,,,; .4-<,..   llv",
"bvx.44,,. ,--,,--,  ;4-,,>llxmxbbvx.44,,. ,--,,--,  ;4-,,>llxmxb",
"xlp,<===--<<,,---, p.,,,;.lxvlllxlp,<===--<<,,---, p.,,,;.lxvlll",
"..X4==55===-4-==-,  ;;,,,.p ll ...X4==55===-4-==-,  ;;,,,.p ll .",
".,,4<<5+5<--===++5-,<<,-,.  .   .,,4<<5+5<--===++5-,<<,-,.  .   ",
" .XX;,5++-4,-<+<+$5=----4>   >.  XXX;,5++-4,-<+<+$5=----4>   >. ",
"pll.. -++=-4M4+=@$+=-4<,;    .,.pll.. -++=-4M4+=@$+=-4<,;    .,.",
" Nc . ,h+++--5+$#1%5<-<44. ,.4,. Nc . ,h+++--5+$#1%5<-<44. ,.4,.",
" > >.XoO++@+@#$%%1&%*+=--; ;:--X > >.XoO++@+@#$%%1&%*+=--; ;B--;",
" >;,,,,<=++@#11&212&#+<-,,X;3o,. >;,,,,<=++@#11&212&#+<-,,.,VM,.",
";,-4-,X,,5@@%%%67662%@<4.o4,84-4;,-4-,X,,5@@%%%67662%@<4.o44M,-4",
"===<-;.>X=@$#%290w61$+<,,--X4<=5===<-;.>X=@$#%290w61$+<,,--X-<=5",
"-,==4,;  ,5=$&e90q&i$=-4-=,;tyu=-,==4,;  ,5=$&e90q&i$=-4-=,;tyu<",
"4<5---,  X-=@&127ei$#=--<-,,,<554<5---,  X-=@&127ei$#=--<-,,,<55",
"=55---, p.,,=a&&6e&@@=,,<--4,,4==55---, p.,,=a&26e&@@=,,<--4,,4=",
"-4,,,,;  ;XX<#22s66#@-X;4<--; ,--4,,,,;  ;XX<#22s66#@-X;4<--; ,-",
".X,,,<<44,,4-@&1d2&#+-4==<,,,,;;.X,,,<<44,,4-@&&d2&#+-4==<,,,,;X",
"  ,<=55=<;;,,-+#C&%a=4,=+<-<-,,X  ,<=55=<;;,,-+#C&%a=4,=+<-<-,,X",
"  X--==-,X. ,-=$g&1%=;-=+5-<4,4X  X--==-,X. ,-=$g&1%=;-=+5-<4,4X",
" p.--=<-,,. .-=5$##%+4-+@5-<=-4. p.--=<-,,. .-=5$##%+4-+@5-<=-4.",
"  X8h5---4. >,,===<@5--++@i@j=,X  X8h5---4. >,,===<@5--++@i@j=,X",
"4,4tk5--44.   >4--4-,-,=@$%1#=--4,4tk5--44.   >4--4-,-,=@$%1#=--",
"5=,4--=,;,X .>l>.,,,;.;,=+$%$=,-5=,4--=,;,X .>l>.,,,;.;,=+$%$=,-",
"-<4zz--4----, xxcl  . .,-=@1@=4--<4zz--4----, xxcl  . .,-=@1@=4-",
"4--,-<-,4,,4;xvvbvvxll> .,<$+-,,4--,-<-,4,,4;xvvbvvxll> .,<$+-,,",
"<<==-=-X4-;X cxxxvvvbvxxlX-=<--<<<==-=-X4-;X cxxxvvvbvxxlX-=<--<",
"@5=@+<4,,--; > ll lxbbvxc.---=5@@5=@+<4,,--; > ll lxbbvxc.---=5@",
"@55++--4;,4; >X>>... ll  .-<=+++@55++--4;,4; >X>>... ll  .-<=++5",
"=<=++=-,X,,;X-;.,444,.XX.>on555==<=++=-,X,,;X-;.,444,.XX.>on555=",
"-,,<=-;X .-<<=,,4--<-,-XX,zt<<5-4,,<=-;X .-<<=,,4--<-,-XX,zt<<5-",
"..,-<-,;  X<=<<-,;,<<-<44,,:-,-,..,-<-,;  X<=<<-,;,<<-<44,,:-,-,",
"l>.4=--,>pX-<--4X.>,<=<4,,;,,X.ll>.4=--,>pX-<--4X.>,<=<4,,;,,X.l",
"vxl,,-4,  >,--,,,; .4-<,..   llvbxl,,-4,  >,--,,,; .4-<,..   llv",
"bvx.44,,. ,--,,--,  ;4-,,>llxmxbbvx.44,,. ,--,,--,  ;4-,,>llxmxb",
"xlp,<===--<<,,---, p.,,,;.lxvlllxlp,<===--<<,,---, p.,,,;.lxvlll",
"..X4==55===-4-==-,  ;;,,,.p ll ...X4==55===-4-==-,  ;;,,,.p ll .",
".,,4<<5+5<--===++5-,<<,-,.  .   .,,4<<5+5<--===++5-,<<,-,.  .   ",
" XX;;,5++-4,-<+<+$5=----4>   >.  XX;;,5++-4,-<+<+$5=----4>   >. ",
"pll.. -++=-4M4+=@$@=-4<,;    .,.pll.. -++=-4M4+=@$@=-4<,;    .,.",
" Nc . ,=+++--5+$#1a5<--4,. ,X4,. Nc . ,=+++--5+$#1a5<--4,. ,X4,."
};
