/* XPM */
static char *_af7c44591454742b380521ac966b1cfnYMOuezaC0z2p0Qe[] = {
/* columns rows colors chars-per-pixel */
"64 64 183 2 ",
"   c #0C0126",
".  c #0F0228",
"X  c #12022C",
"o  c #19022B",
"O  c #1B0D2A",
"+  c #1F172C",
"@  c #170330",
"#  c #180331",
"$  c #250F2B",
"%  c #29092C",
"&  c #2D1226",
"*  c #24142E",
"=  c #2A172A",
"-  c #34152C",
";  c #3A172B",
":  c #31242B",
">  c #39272E",
",  c #3E2F2E",
"<  c #3F342B",
"1  c #372B31",
"2  c #481D2B",
"3  c #54262D",
"4  c #56282D",
"5  c #5E2D2E",
"6  c #453A2E",
"7  c #493630",
"8  c #443831",
"9  c #602D2B",
"0  c #63332B",
"q  c #6B342C",
"w  c #71372F",
"e  c #773A2C",
"r  c #7C3C2B",
"t  c #4E4231",
"y  c #574932",
"u  c #63492F",
"i  c #665532",
"p  c #6C5C34",
"a  c #746337",
"s  c #7B6935",
"d  c #823F2D",
"f  c #85422E",
"g  c #8C462C",
"h  c #8C4B2C",
"j  c #92482D",
"k  c #9C4E2D",
"l  c #A4522D",
"z  c #AC562D",
"x  c #AF582D",
"c  c #B45B2E",
"v  c #BB5F2E",
"b  c #9C6F36",
"n  c #867339",
"m  c #887639",
"M  c #8F7A3A",
"N  c #957C35",
"B  c #917C39",
"V  c #BF612E",
"C  c #C2632D",
"Z  c #C56A2F",
"A  c #C86B2F",
"S  c #C06730",
"D  c #CC6130",
"F  c #C66E30",
"G  c #CD6B31",
"H  c #D06731",
"J  c #D26D33",
"K  c #CD7231",
"L  c #CD7B32",
"P  c #D47533",
"I  c #D87734",
"U  c #D57B33",
"Y  c #D97D35",
"T  c #D67C38",
"R  c #9F893D",
"E  c #A48C3D",
"W  c #B68934",
"Q  c #AA913E",
"!  c #D38534",
"~  c #DD8336",
"^  c #D68B35",
"/  c #DC8B36",
"(  c #DA853A",
")  c #D68B38",
"_  c #DD8C3A",
"`  c #DA9436",
"'  c #DE9B36",
"]  c #D5913B",
"[  c #DD933C",
"{  c #D9993C",
"}  c #E08637",
"|  c #E18937",
" . c #E08738",
".. c #E18B39",
"X. c #E19836",
"o. c #E3933C",
"O. c #E49B3D",
"+. c #CAA139",
"@. c #D9A737",
"#. c #DEA43F",
"$. c #F1BA2D",
"%. c #E3A336",
"&. c #E5A837",
"*. c #E8AD37",
"=. c #E5A13F",
"-. c #E8A33C",
";. c #E6B137",
":. c #ECB436",
">. c #EFB934",
",. c #EFB539",
"<. c #F1BC32",
"1. c #F1BC3A",
"2. c #F1C037",
"3. c #F2C13C",
"4. c #AB9340",
"5. c #B29940",
"6. c #BBA243",
"7. c #C79A40",
"8. c #E49541",
"9. c #E59B42",
"0. c #E69D5D",
"q. c #C6AA45",
"w. c #CBAF46",
"e. c #DFA943",
"r. c #CEB347",
"t. c #D4B749",
"y. c #D9BC4A",
"u. c #E5A343",
"i. c #E8A440",
"p. c #E4AD42",
"a. c #E9AB42",
"s. c #E8A54A",
"d. c #EAAB4D",
"f. c #E5B445",
"g. c #EBB344",
"h. c #EBBB46",
"j. c #EBB44D",
"k. c #EDBA4A",
"l. c #EDB552",
"z. c #EEBC56",
"x. c #E8A468",
"c. c #DFC14B",
"v. c #EBC147",
"b. c #E2C44C",
"n. c #EEC44A",
"m. c #E7C84E",
"M. c #EDCB4D",
"N. c #F2C543",
"B. c #F4C940",
"V. c #F1C54A",
"C. c #F2CC4C",
"Z. c #F4D34D",
"A. c #EFC755",
"S. c #F3CC56",
"D. c #F1C65A",
"F. c #F3CD5C",
"G. c #F5D451",
"H. c #F5D954",
"J. c #F3D15D",
"K. c #F7DF5B",
"L. c #F3D561",
"P. c #F6D862",
"I. c #F6DA69",
"U. c #F7DC73",
"Y. c #F8DF7D",
"T. c #FAE766",
"R. c #FAE865",
"E. c #FDF476",
"W. c #FEF87A",
"Q. c #EDB786",
"!. c #F0CA98",
"~. c #F9E595",
"^. c #F9E79C",
"/. c #F6DCBA",
"(. c #FAE9A6",
"). c #FAEBAD",
"_. c #FBECB1",
"`. c #FBEEBC",
"'. c #FCF3CF",
"]. c #FCF4D1",
"[. c #FEFAEB",
"{. c #FEFCF4",
"}. c #FFFFFF",
/* pixels */
"X o @ X X X X @ . X . X . . .             X X X X X o X . X . X @ X X X X @ X @ . X . . X .     . .     X . X X X X o X X X . X ",
"X @ @ X X X X X X . . . . .             .   X X X X X X O X @ @ X @ X X X X X X . X . . .                 . X X X X X X o X X @ ",
"X X . X X X X X X . . .     .             . . X X X X t p s m m a i < X X X X X X . . . .   .             X X X X X X X X X X X ",
"X X . X X X @ X X X . . .               . . 6 B 6.y.m.G.G.G.G.G.G.G.G.A.f.7.b 7 X X . . .               .   X X X X X X X X . . ",
"X X X X X X X @ X X . X               : M w.G.G.H.G.G.G.G.G.G.G.G.G.G.G.G.G.G.S.e.W 0 .                   . X X X . X X X @ . . ",
"X . . . X X X @ X X X X X         < Q m.G.G.G.G.G.G.G.G.G.G.G.G.G.G.G.G.G.G.G.G.G.G.A.) h &               X X X . X X X X X . . ",
"X . . X X X X X # X X X       = Q M.G.G.G.G.G.G.G.G.G.G.G.G.G.G.G.G.G.G.G.G.G.G.G.G.G.G.n.' j &         . X X X X X . @ X X @ . ",
"X X @ X X X X @ @ X X X X   s c.G.G.G.G.G.G.G.G.G.G.G.G.G.G.G.G.G.G.G.G.G.G.G.G.G.G.G.G.B.$.>.K e       . X X X X X X X X @ X X ",
"X X X X X X . X X X X X O 4.G.G.G.G.G.G.G.G.G.G.G.G.G.G.G.G.G.G.G.G.G.G.Z.I.U.G.G.L.G.Z.<.$.$.$.' l ; X   X X X . X . @ X X @ X ",
"@ X X X . . X X X X @ > r.G.G.Y.`.U.G.G.G.G.G.G.C.s.~ P H H D H H P T ..j.S.`.I.~.~.G.N.$.$.$.$.$.*.V 9 X X X . . . @ . . X X @ ",
"X @ X X X X . X X X 7 y.G.G._.}.}.U.G.G.G.G.9.P D D D H P I Y Y ~ ~ ~ ~ T 8.!.}.).G.G.$.$.$.$.$.$.$.:.C e X X X X . @ X X X . @ ",
"X @ X X X X X . X 8 c.G.G.(.}.}.).G.G.S.o.G D D D P Y  . . .X.|  . . . . .x./.Q._.S.N.$.$.$.$.$.$.$.$.>.C r X . . . X . . X X X ",
"@ X @ X X . X X : t.G.G.G.[.{.^.G.G.a.G D D H I  . .} } } -.G.v.I  .} } } 0. .} Q.0.k.<.$.$.$.$.$.$.$.$.:.S e X . . . . . . X @ ",
"X X X X X X X X w.G.G.G.G.L.J.G.G.( D D D P }  . . .} } } g.G.C.P  .} } } }  . .} } } d.3.$.$.$.$.$.$.$.$.&.C q . . .   . X X X ",
". X X X X X . 4.G.G.H.].~.G.G.C.J D D G o.g... .} } } } }  .O.! ~ } } } } } } X.-.} } } 8.V.$.$.$.$.$.$.$.$.^ V 2 . . . . X X X ",
"X X X X X X p G.G.G.(.'.G.G.A.G D D H ~ V.Z.p.Y } } } }  . .~  .~ } } } } } } V.Z.p.~ } } o.V.<.$.$.$.$.$.$.<.G z O .   . . X X ",
"X X X X X O t.G.G.G.P.H.G.C.H D D H } } g.Z.) Y } } } } } }  . .} } } } } } / g.Z.{ Y }  . ...C.$.$.$.$.$.$.$.:.C g X . . X X X ",
". X X X X R G.G.G.G.G.G.S.P D D H  .} } } Y U ~ } } } } } } 9.l.o.~ } } } }  .| ~ Y  .}  . . .o.v.$.$.$.$.$.$.$.! V 2 X X X X X ",
". . X . = m.G.G.G.G.G.H./ D D H  . . .} } } | } } } } } } } E.R.S.V Y } } } } } } } } }  . .} } s.2.$.$.$.$.$.$.>.C l X X X . . ",
". X . . E G.G.G.G.G.G.g.D D D Y  . . .} } } } } } } } / } } W.Z.v.V U } } } } } } } } } } } } } / S.$.$.$.$.$.$.$.! C 3 . X . . ",
"X . . O b.G.G.G.G.G.G.G D D I / } } } } } } }  .D.P.L.L.P.J.E.Z.V.f.f.[ ~ } } } } } } } } } } } } ..C.$.$.$.$.$.$.,.C k . X . X ",
"X X X s G.G.G.G.G.G.9.D D T g.X.} } } } } } } A.W.K.H.H.H.H.Z.Z.Z.Z.Z.Z.C.{ P ~ } } } } } } a.a.~  .z.<.$.$.$.$.$.<.K C - X   X ",
"X @ @ q.G.G.G.G.G.G.J D D a.Z.C.P ~ } } } } } F.T.Z.Z.Z.Z.Z.Z.Z.Z.Z.Z.Z.Z.Z.p.F ~ } } } } X.Z.Z.`  ...S.$.$.$.$.$.$.%.C d X X X ",
"@ X O M.G.G.G.G.G.g.D D H O.M.=.U | } } } }  .J.T.Z.#.L _ ` Z.Z.Z.#.h.Z.Z.Z.Z.! K } } } } | v.C.L  . .D.$.$.$.$.$.$.,.C x X X X ",
"@ @ a G.G.G.G.G.G.T D D I } ~ Y ~ } } } } } } J.T.Z.{ C } } Z.Z.Z.C U | Z.Z.Z.N.C ~ / } } } } Y } }  .9.N.$.$.$.$.$.$.A C ; X # ",
"# # 4.H.G.G.G.G.G.G D D ~ } } } } } } } } } } F.T.Z.{ V } } C.Z.Z.V U } X.Z.Z.Z.C U } } } } } } } }  .} S.$.$.$.$.$.$.^ C w # # ",
"@ @ q.G.G.G.G.G.g.D D H } } } } } } } } } }  .J.R.Z.{ V } } Z.Z.C.V ! } | Z.Z.C.V U } } } } } } } } } } F.$.$.$.$.$.$.%.C j # X ",
"X X y.G.G.G.G.G.8.D D I } } } } } } } } }  . .F.R.Z.{ C } } Z.Z.C.V U } o.Z.Z.M.C Y } } } } } } } } } } z.<.$.$.$.$.$.:.C l # X ",
"@ X M.H.G.G.G.G.( D D Y } } } } } } } } } }  .J.R.Z.{ V / / Z.Z.Z.C U ~ N.Z.Z.p.C } } } } } } } } } } } s.3.$.$.$.$.$.>.C c @ @ ",
"@ + G.G.G.G.G.G.P D D ~ } } }  .} } } } } }  .F.R.Z.' C } } Z.Z.Z.C / n.Z.Z.Z.Z P } } } } } } } } } } } 8.N.$.$.$.$.$.<.D C X X ",
"@ 8 G.G.G.G.G.H.P D D ..O.~  . .} } } } } } } J.R.Z.n.f.h.g.Z.Z.Z.Z.Z.Z.Z.Z.K K } } } } } } } } ..O.} } ..C.$.$.$.$.$.<.C C % @ ",
"X y G.G.G.G.G.G.G D G C.Z.O. . .} } } } } } } J.R.Z.Z.Z.Z.Z.Z.Z.Z.Z.Z.Z.Z.#.K ~ } } } } } } } | h.Z.p.~ | C.$.$.$.$.$.<.D C ; X ",
"@ t G.G.G.G.G.G.H D G C.Z.] ~ } } } } } } } ~ J.R.Z.C.v.n.C.Z.Z.Z.Z.Z.Z.Z.Z.C.U P } } } } } } } h.Z.p.Y ..C.$.$.$.$.$.$.C D 2 X ",
"X 1 G.G.G.G.G.G.P D G  ./ P } } } } } } } } } J.R.Z.' V / | Z.Z.Z.V ^ -.C.Z.Z.Z.! L } } } } } } | ` U } o.C.$.$.$.$.$.<.C C - X ",
"X X G.G.G.G.G.G.Y D D } / } } } } } } } } } } J.R.Z.{ C } } Z.Z.Z.V U } } h.Z.Z.n.V ~ } } } } } } } ~ } 9.N.$.$.$.$.$.<.C C o X ",
"X X b.G.G.G.G.G._ D D ~ } } } } } } } } } } } F.R.Z.{ C } } Z.Z.C.V U / } / Z.Z.Z.C P } } } } } } } } } d.3.$.$.$.$.$.,.C v X . ",
"X X r.G.G.G.G.G.u.D D Y } } } } } } | } } } } J.R.Z.{ V } } Z.Z.Z.C U } } } C.Z.Z.L K | } } } } } } } } D.<.$.$.$.$.$.;.C x X X ",
"X X 5.G.G.G.G.G.S.D D I } } } } } } } } } } } J.R.Z.{ V } } Z.Z.C.C U } } } Z.Z.Z.F K ~ } } } } } } } } F.$.$.$.$.$.$.' C k X . ",
"X . B G.G.G.G.G.G.J D H } } } } } } } } } } / J.R.Z.{ V | } Z.Z.Z.V U |  .,.Z.Z.Z.V U } } } | } } } } ..C.$.$.$.$.$.<.P C d X . ",
"X X 8 G.G.G.G.G.G.o.D G } } | } } } } } } | ~ J.R.Z.' S | ..Z.Z.Z.V I ..h.Z.Z.Z.f.C ~ } } }  . .} } } l.<.$.$.$.$.$.<.C C 3 X X ",
"X X X y.G.G.G.G.G.S.D D I o.Z.n.~ ~ } } } } } J.R.Z.v.n.C.C.Z.Z.Z.M.Z.Z.Z.Z.Z.Z.Z P ~ |  .o.Z.V.Y } } F.$.$.$.$.$.$.:.C v X X X ",
"X @ X 4.G.G.G.G.G.G.~ D J i.Z.Z.L ~ } } } } } F.R.Z.Z.Z.Z.Z.Z.Z.Z.Z.Z.Z.Z.Z.C.L K | | ~  .-.Z.Z.K } s.3.$.$.$.$.$.$./ C k X X X ",
"@ @ X 6 G.G.G.G.G.G.V.G D } =.] U } } } } } } u.T.Z.Z.Z.Z.Z.Z.Z.Z.Z.Z.C.v.{ K ~ } } } } } | u.) U } F.$.$.$.$.$.$.<.C C 9 X X @ ",
"X @ X X q.G.G.G.G.G.G._ D J } } } } } } } } }  . . .| / / ..Z.Z.C.C P / } } } } } } } } } } ~ } } d.1.$.$.$.$.$.$.&.C c X X X X ",
"@ @ X X i G.G.G.G.G.G.G.J D Y  .} } } } } } } } } } } }  . .Z.Z.Z.V U } } } } } } } } } } } } } ..C.$.$.$.$.$.$.$.A C r X . X X ",
". X X X X w.G.G.G.G.G.G.k.D H  .} } } } } } } } } } } } }  .N.V.;.Z ~ } } } } } } } }  .} }  . .S.<.$.$.$.$.$.$.&.C v O . X X X ",
". X X X X y M.G.G.G.G.G.G.u.D J } } } } } O...| } } } } } } } } ~ } } } } } } O.X.~ /  .} } } z.<.$.$.$.$.$.$.<.A C e . . . X X ",
"X X X X o X 4.G.G.G.G.G.G.G.O.D I } } } i.Z.C.U } } } } } } } } | } } } } } X.Z.Z.U  . .} } l.<.$.$.$.$.$.$.$.` C z .   . X X X ",
"X X X X X . + t.G.G.G.G.G.G.G.9.D Y  . .i.Z.C.K ~ } } } } }  .} } } } } } } o.Z.C.L } } } j.2.$.$.$.$.$.$.$.:.C C 3 X . . X X X ",
". X X . X X X y M.G.G.G.G.G.G.G.a.D I  . .o.U Y  . .} } } -.Z.f.Y } } } } } | ..~ Y }  .V.<.$.$.$.$.$.$.$.<.A C r X X X X X X . ",
". X . . . X X X n G.G.G.G.G.G.G.G.n.I P ~ ~  .} } } } } } g.Z.C.K } } } } } } } ~ ~ 9.V.<.$.$.$.$.$.$.$.<.L C k # X X X X . . . ",
". . . X . X X X X B G.G.G.G.G.G.G.G.G.i.I ~  . .} } } } } o.p.! Y } } } } }  .| o.k.<.$.$.$.$.$.$.$.$.<.( C x $ @ X X X X X . X ",
"X . X . . X X X X X R G.G.G.G.G.G.G.G.G.Z.=.o.} } } } } } } } } } } } }  . .8.g.1.$.$.$.$.$.$.$.$.$.$.^ C c - X @ X X X . X . X ",
". @ X X . X X X @ X X M G.G.G.G.G.G.G.G.Z.3.$.<.:.-. .} } } } } } }  .O.g.1.<.$.$.$.$.$.$.$.$.$.$.$.) C z - X X X X @ X X . . X ",
"@ X X . X X X X @ X X X s m.G.G.Z.G.G.G.G.<.$.$.$.$.$.<.<.1.,.1.1.<.<.$.$.$.$.$.$.$.$.$.$.$.$.$.<.U C l * X X X X X X X X X X X ",
"@ X @ X X X X X X @ X X X 6 w.G.H.G.G.H.3.$.$.$.$.$.$.$.$.$.$.$.$.$.$.$.$.$.$.$.$.$.$.$.$.$.$.*.C C f X X X . X X X X X X X X X ",
"# @ @ X X X X X @ X X X X X X M m.G.G.G.<.$.$.$.$.$.$.$.$.$.$.$.$.$.$.$.$.$.$.$.$.$.$.$.$.<.^ C z 5 X X X X X X X @ X @ X o @ @ ",
"# # @ X X X X X X @ X X X X X X , 5.S.3.$.$.$.$.$.$.$.$.$.$.$.$.$.$.$.$.$.$.$.$.$.$.$.<.%.C v d O X @ @ X X X X X X @ @ # # @ # ",
"@ @ @ X . X X X X X . X X X X X X X , +.<.$.$.$.$.$.$.$.$.$.$.$.$.$.$.$.$.$.$.$.$.>.X.C v j - X X X X @ @ X X X @ X # # @ @ @ @ ",
"X X X X . X . . X X X X X X . X X X X X X N @.<.$.$.$.$.$.$.$.<.$.$.$.$.$.$.<.&.L C z e % X X X X X @ @ X X X X X X @ X @ @ @ X ",
"X X X X X X X X   X X X X X X   . X X X X X X X u W @.*.;.<.>.>.>.,.*.%.^ S z j q & X X X X X   X X X X X . @ X X X X @ X X @ @ ",
"@ X @ X X X X . X X X X X .   X . . . X X X X X X X @ X @ - 3 5 q q 9 4 - X X X   X X X X . X X . . . X X X . X X X @ X o @ X X ",
"X @ @ X o X X .   X X X X X X X . . . X X X X X X @ X @ X X X X @ @ @ X X X X . X X X X X X   X . . . X X X . X @ @ X @ @ @ X @ ",
"@ # # X X X X X . . . X X X .   .   . . . X X X X X X X @ X X X @ X # o X X X X   X   X X . X . .     . . X X X X X @ X X . X X "
};
