/* XPM */
static char *_4a5987bc81c4317d379f55eb988e6032idgoeJmpjWoLBXH[] = {
/* columns rows colors chars-per-pixel */
"64 64 150 2 ",
"   c #1F1C1C",
".  c #221E1E",
"X  c #0D0126",
"o  c #0F0228",
"O  c #120726",
"+  c #150B27",
"@  c #13022C",
"#  c #18052F",
"$  c #160A2A",
"%  c #190D2A",
"&  c #1B1426",
"*  c #1F1924",
"=  c #1B1229",
"-  c #170330",
";  c #180331",
":  c #120B30",
">  c #181737",
",  c #221E21",
"<  c #242123",
"1  c #292424",
"2  c #2F2920",
"3  c #25252A",
"4  c #292628",
"5  c #26282E",
"6  c #2D2B2D",
"7  c #302426",
"8  c #312B20",
"9  c #352629",
"0  c #3C292C",
"q  c #3C3320",
"w  c #272B33",
"e  c #2A2E35",
"r  c #282F39",
"t  c #302E30",
"y  c #29323D",
"u  c #323134",
"i  c #36373B",
"p  c #38373A",
"a  c #3A3A3C",
"s  c #422C2F",
"d  c #413720",
"f  c #4B2F33",
"g  c #513237",
"h  c #573439",
"j  c #4E4221",
"k  c #665621",
"l  c #756221",
"z  c #2B3643",
"x  c #2B3846",
"c  c #2C3B4C",
"v  c #3E3F42",
"b  c #2E3F51",
"n  c #673B41",
"m  c #683C42",
"M  c #3F4146",
"N  c #2F4256",
"B  c #2F4459",
"V  c #30465D",
"C  c #2D4968",
"Z  c #314B64",
"A  c #324E69",
"S  c #34526E",
"D  c #34526F",
"F  c #345574",
"G  c #365877",
"H  c #365A7B",
"J  c #424347",
"K  c #444548",
"L  c #494B4F",
"P  c #4C4F53",
"I  c #4D5155",
"U  c #52565B",
"Y  c #515A65",
"T  c #61676C",
"R  c #656C72",
"E  c #616E7D",
"W  c #697177",
"Q  c #6C757B",
"!  c #6F787E",
"~  c #70797F",
"^  c #836E21",
"/  c #947B22",
"(  c #884951",
")  c #A95762",
"_  c #AA5762",
"`  c #B85D69",
"'  c #C2616E",
"]  c #D76978",
"[  c #D86A79",
"{  c #A18622",
"}  c #A38822",
"|  c #A88C22",
" . c #AE9022",
".. c #C5A422",
"X. c #D1AD22",
"o. c #D8B323",
"O. c #EDC423",
"+. c #F1C723",
"@. c #FED323",
"#. c #365C80",
"$. c #375D80",
"%. c #385F82",
"&. c #396186",
"*. c #396389",
"=. c #3A648A",
"-. c #3A658C",
";. c #3A658D",
":. c #3A668E",
">. c #3B678F",
",. c #667484",
"<. c #6C7C8E",
"1. c #717A81",
"2. c #EB7182",
"3. c #FF7D8F",
"4. c #768187",
"5. c #778188",
"6. c #79848A",
"7. c #7C888F",
"8. c #728396",
"9. c #7E8991",
"0. c #76889C",
"q. c #828F96",
"w. c #849199",
"e. c #89979F",
"r. c #89989F",
"t. c #8B99A1",
"y. c #879EB5",
"u. c #92A1AA",
"i. c #8AA2BB",
"p. c #97A8B1",
"a. c #98A9B2",
"s. c #9AABB4",
"d. c #A1B3BD",
"f. c #9EBCD9",
"g. c #A1BEDB",
"h. c #ADC1CC",
"j. c #B4CAD4",
"k. c #B9CFDB",
"l. c #BAD1DC",
"z. c #AACBEA",
"x. c #BFD6E1",
"c. c #C0D7E3",
"v. c #C2DAE6",
"b. c #C5DDE9",
"n. c #C8E1ED",
"m. c #CCE5F2",
"M. c #CFE9F5",
"N. c #D4EFFC",
"B. c #D6F1FE",
"V. c #D8F4FF",
/* pixels */
"@ # @ @ @ @ @ - o o o o @ o o X X X X X X o @ @ @ @ @ @ @ @ $ * , $ # @ @ # @ @ o @ o o @ X X X @ X X X @ o @ @ @ @ @ @ @ @ @ @ ",
"@ - @ @ @ @ @ @ @ @ o o o X X X X X X X X o o @ @ @ @ @ # O * . < * @ @ @ @ @ @ o @ o o o X X X X X X X o o o @ @ @ @ @ # @ @ @ ",
"@ @ @ @ @ @ - @ @ @ o o X X o X X X X X o o o @ @ @ @ @ @ & . . . , & @ @ @ @ @ @ o o o X o X X X X X X X o o @ @ @ @ @ @ @ @ @ ",
"o @ @ @ @ @ @ @ @ o o o o X X X X X X X o o @ @ @ @ @ @ = , . h h . . = @ @ @ @ @ @ o o o X X X X X X X o o @ @ @ @ @ @ @ @ o o ",
"@ @ @ @ @ @ @ - @ @ @ o o X X X X X X X o @ @ @ @ @ @ $ , . s ] ] s . , + - @ - - @ @ @ X X X X X X X X X X @ @ @ @ @ @ @ @ o @ ",
"@ @ o @ o @ @ @ @ @ @ @ o X X X X X X X o o @ @ @ @ @ * < < ) 3.3.) < . , @ @ @ @ @ @ o o X X X X X X X o o @ @ o @ @ @ @ o @ o ",
"o o o @ @ @ @ - - @ @ @ @ X X X X X X o o @ @ @ o @ @ < . < m ' ' m , < , $ @ - - @ @ @ @ X X X X X X X o @ @ @ @ @ o @ @ @ @ o ",
"@ @ @ @ @ @ @ @ - @ @ @ @ X X X X X X o X @ @ @ @ @ % . . . . 1 1 . , < , $ @ @ - @ @ @ @ X X X X X X X o @ @ @ @ o @ @ @ - @ @ ",
"- @ @ @ @ @ o @ @ @ @ @ @ o X X @ X X o o @ @ o o @ & * < r < < , , y < < & @ @ @ @ @ @ @ o X X # X X o o o @ @ o @ - @ @ @ - @ ",
"@ @ @ o @ o o @ @ @ - @ @ @ o o @ X o o @ o @ @ o @ + < c $.S S A F %.w . & O @ o @ @ @ @ @ o o @ X X o @ @ @ @ o @ @ o o @ @ @ ",
"- @ @ @ @ o o @ @ @ @ @ @ @ @ o X X X o o @ @ @ @ o @ C *.-.-.-.-.-.=.x . , O @ @ @ @ @ @ @ @ o X X X X @ @ @ X o @ @ @ @ @ @ - ",
"- - @ @ @ @ @ o @ @ @ - @ @ @ o o o X o o @ @ o o o > $.-.-.-.-.-.-.-.V . , O @ @ @ @ - @ @ o o o X o X X @ @ @ o o @ o @ @ o @ ",
"@ - @ @ @ o @ @ @ @ @ @ @ @ @ @ @ o @ o o @ @ o @ o * B -.-.=.-.-.-.>.F , , = @ @ @ @ - - @ @ @ @ o @ X @ @ @ o o o o o o @ @ @ ",
"@ @ @ @ @ o @ @ @ @ @ - @ @ @ @ o @ @ @ - o - o o & . w $.-.-.-.-.-.=.H 5 . & @ @ @ @ @ - @ - @ @ @ @ @ @ @ @ o o o X o o o @ @ ",
"o @ @ @ @ @ o @ - @ @ @ @ - - - @ @ @ o @ @ o @ o O 5 N &.-.-.-.-.-.-.=.y . , @ @ @ @ - @ - - @ @ @ @ @ @ - @ @ @ o o o o o @ @ ",
"@ @ @ @ @ @ @ @ @ @ @ @ @ @ - - - - - - @ - - - o : D *.-.-.-.-.=.-.-.-.c , , # @ @ @ @ @ @ - - - @ # @ @ @ @ @ @ @ o o o o @ @ ",
"@ @ @ @ @ o @ @ @ @ @ @ - - - - - - - - - - - @ # > H -.-.-.H x x $.-.-.V < . % @ @ @ @ @ - ; - ; ; - - - - - @ @ @ o o @ @ @ @ ",
"o o @ @ o @ @ - @ @ @ @ @ - - - - ; - - ; - - - # , N -.-.-.N . , B -.-.H < . = @ o - @ - - - - ; ; ; ; ; ; - - - - @ o o @ @ @ ",
"o o @ o o o o @ @ @ @ @ - @ - - - - - - ; ; - - , , e &.-.H 5 . , 5 H =.&.w . * @ @ @ @ @ - - - - - - - ; ; ; - - - @ @ @ @ o o ",
"o @ o o @ @ @ @ @ @ @ @ @ - @ - - @ o - - - - = , , B -.-.c . . , . b -.=.B < , = @ @ @ - @ @ @ @ @ @ @ @ - - @ @ @ o @ o @ o o ",
"@ o @ o o o @ @ @ @ @ @ @ @ @ @ @ @ @ @ @ @ # * , w H -.F 3 . . < . 3 G -.H w < * # @ @ @ @ @ @ @ @ @ o @ - @ - @ @ @ @ o o @ @ ",
"@ @ @ @ @ @ @ @ - @ @ @ @ o @ @ @ @ @ o @ @ = . < V -.-.x . . < . . , x -.-.B < , = @ o @ o @ @ @ @ @ @ @ @ o - - @ @ @ @ o o @ ",
"@ @ @ @ @ @ @ @ @ - @ o @ o @ @ @ @ @ @ @ O , . r %.-.S < < i < 3 i < < F -.&.w . * # o @ @ o @ @ @ @ @ o @ o @ @ @ @ @ @ @ @ @ ",
"- @ @ @ o @ @ @ @ - @ @ @ @ @ = $ @ @ @ @ & , < Z -.&.y . i <.1 4 <.u . z &.-.Z < < & @ o @ @ $ = # @ @ @ o @ @ @ @ @ @ @ @ @ - ",
"; - - @ @ @ o @ @ - @ @ @ $ * . , # # @ + , < y &.-.A <   ,.y.< 3 i.,.. < A =.&.y . , + @ @ @ * , * $ @ @ o @ @ @ @ - @ - - # - ",
"; ; - @ @ @ @ @ @ - @ @ + * , < , $ - = , < < A -.&.r   i z.y.< < i.g.i . y &.=.A < , * & @ # , , , , = @ @ @ @ @ - @ - - - - - ",
"- - - @ o @ o @ @ @ @ = , , . . . = & , . . 3 G -.Z , . 8.z.Y . . Y z.<.. , A =.G 3 . < . * + , < . . < = @ @ @ @ @ - - - @ - - ",
"@ @ @ @ @ @ o o o @ + , . 9 g < < * < . 1 . 3 G %.w . M f.E . . . < ,.f.M . e $.G 1 < 3 . < , , , f 0 . < = @ @ @ @ - - - - - @ ",
"- @ @ @ @ o o @ o @ & . , _ _ . . . < T ! . 3 G Z , < 0.0.1 . r y . < 0.0.< . Z H 3 < ! T 1 . . . ( ' 9 . & $ @ @ @ @ # @ - @ - ",
"- @ @ @ - @ o @ o @ = < 7 [ _ , . u q.M.t.. 3 H V . u <.6 . w H G w . 6 <.e , B H <   t.M.w.u .   ( 2.s . & o @ @ @ - @ - @ # @ ",
"- - - - @ # @ o o @ = . 7 ] _ . 4 a.B.V.t.. 3 H B . 1 4 . 3 F -.=.D 3 . 4 1 . V H 3 . r.V.B.d.u   ( 2.s * & o @ @ - - # # # @ @ ",
"@ % % % $ # @ o @ X =   7 [ _ . 6 j.B.V.t.. 3 H V . . . < A -.-.-.-.A < < . < V H < . r.B.B.b.M   ( 2.s < & @ @ @ @ # + + $ $ @ ",
"& , . < , , = # O % , , 7 ] _ . 6 j.B.B.t.. < c y < , < V -.-.-.-.-.-.N < . . y c < . r.B.B.b.v . ( ] f < * & @ @ = , , , , , & ",
"* < . . < ,   % = , , . 7 ] _ . 6 j.B.V.t.. . . . . , x &.-.-.=.-.-.=.=.x < < . . . . r.B.B.v.v   ( 2.s . .   = %   . < < . , * ",
"* , d | / 8 , , . . < . 7 ` n . 6 j.B.B.r.< < 3 5 5 x &.-.-.-.-.-.-.-.-.&.x 5 5 3 < . r.B.B.v.v   g ' s   . . < , , 8 / | q . * ",
"* * j +.@.^ . < . P W . . 0 . . U n.B.V.r.. 3 S &.H *.-.-.-.-.-.-.=.-.-.-.&.&.H S 3 . e.B.B.M.W , . 9 2 . U I . <   ^ @.+.j , * ",
"*   j O.@.{ . < W b.u., . . 1 R x.B.N.B.t.< 3 H -.-.>.-.-.-.-.-.-.-.-.-.-.=.-.-.H 3 . e.B.N.N.n.1.6 . . . 5.b.W < , } @.O.j , * ",
"* . j O.@.{ . 6 j.V.u.. . t q.m.B.B.B.B.r.. < G -.-.-.-.-.=.-.-.-.-.-.-.-.-.-.-.H < . e.B.N.N.B.N.u.p . . 1.V.j.6   { @.O.j   * ",
"* * j O.@.{ . t j.V.h.i K s.N.B.N.N.N.B.t.. 3 G -.-.-.-.-.=.-.-.=.-.-.-.-.-.-.-.H 3 . r.B.B.N.N.N.B.h.I u p.V.j.u . } @.O.j , * ",
"* , j O.@.{ . t j.B.N.l.x.B.N.N.B.N.N.V.r.. 3 H -.-.-.-.-.>.-.-.-.-.-.-.-.-.-.-.H 1 . r.B.N.N.N.N.N.B.b.k.M.B.j.6 . } @.O.j * * ",
"* . j O.@.{   t j.V.N.N.N.N.N.N.N.N.N.B.w.. < A =.-.-.-.-.-.-.-.-.-.-.-.-.-.-.-.A < . w.B.B.N.N.N.N.N.B.B.N.B.j.u . { @.O.j . * ",
"*   j O.@.{ < t j.N.N.N.N.N.N.N.N.N.B.m.U . . 3 D -.-.-.-.-.-.-.-.-.-.=.-.-.-.A 3 . . U n.B.N.N.N.N.N.N.N.N.B.j.e . { @.O.j   * ",
"* * j O.@.{   e j.V.N.N.N.N.N.N.N.B.B.p.4 . . . 3 A -.-.-.-.-.-.-.-.-.-.=.=.A 1 . . . < p.B.N.B.N.N.N.N.N.N.B.j.t . { @.O.j , * ",
"* < j O.@.{ . t j.N.N.B.N.N.V.N.B.B.m.U . < . < , 3 Z -.-.-.-.>.>.-.-.-.=.B < . < < . . U m.B.B.B.B.N.N.N.N.B.j.t . { @.O.j * * ",
"* . j O.@.{ . t j.V.V.V.B.B.M.x.h.p.! 1 . < 3 N 3 . 3 c N N N N B N N N x < . 5 B < . < 1 ! p.h.x.m.N.B.B.B.V.j.e , } @.O.j . * ",
"* . j O.@.{ . t f.v.h.a.9.R I a 6 < . . . . 1 G A 3 . . . . . , . , . < . . w F H 3 < . . . < 6 p I R 7.p.h.v.h.t   { @.O.j   * ",
"* * j O.@.{ . 3 K a 6 , .   . . . < < < i < < H -.D e 5 5 5 5 5 3 5 5 5 5 y G >.H 3 < i < . < . . .   . < 6 a J 1 . } @.O.j , * ",
"* . j +.@.} . . . . , , , , , = = , . a ! < < H -.-.$.H &.H $.$.H $.$.H H =.-.-.H < , ! a < . = & & , , . . . . < . } @.+.j * * ",
"* . q ^ / k * . * & & % $ - - - % , , 7.t.. 3 G -.-.-.>.-.-.-.-.-.>.>.-.-.-.-.-.H 1 . t.q., , % ; ; # # % = = , , , k / ^ q , * ",
"* < <     * . < + @ @ @ - - - ; , . a x.t.. 3 G -.-.>.*.=.-.-.-.>.>.-.-.-.-.-.-.H 1 . t.l.a , , # ; ; ; ; ; ; % , , , * . , , * ",
"= , * . , , , & @ @ @ @ - @ # = , . 6.V.t.. 3 G -.-.=.=.=.F Z Z Z Z H -.-.-.-.-.H 3 . e.V.6.. . % # # # ; ; ; - , , , , * , * & ",
"X X $ + $ # O @ @ @ @ @ @ - @ * . a k.V.t.. 3 G -.-.-.-.H 3 . . . , y &.-.-.-.-.H < . t.V.k.a . * # @ @ @ - - @ ; - # @ $ O O o ",
"@ o @ o o @ @ @ @ @ @ @ @ @ = , . 4.B.V.t.. < G >.-.-.*.x , < 8 2 < . B >.>.>.-.H 3 . t.B.B.6.. . = @ @ @ @ @ - @ - @ o o o o @ ",
"@ @ @ o o @ @ @ - @ @ o @ @ *   i k.B.m.R . < z F *.-.A < . l X...j   w H -.&.S r , . R m.B.l.a . * @ @ @ @ @ @ @ @ - - o o o @ ",
"@ ; @ @ @ o @ @ - @ @ @ o = , , 4.B.m.! < < , . < z A e , d o.@.@. .1 , c Z y < . , , < ~ m.B.5.. . % @ o @ @ @ o - @ o @ @ @ - ",
"- @ @ @ @ @ @ @ @ - @ @ @ * . p l.M.! , . , & , , , < , , d l l l k 8 , < < . , , = , . < Q m.l.p . , @ @ o o @ @ @ @ @ @ @ @ - ",
"; - - @ @ @ @ @ - @ @ @ + , . 1.m.! , , , O @ $ = , , , , , * * . , < , < . , & # @ $ , , , Q m.5.. , % @ o @ @ @ @ @ @ - - - - ",
"; ; - @ o @ @ @ @ - @ o , , v h.! , . , # @ @ @ ; % = , , , . < , , * , * & $ @ @ @ @ $ , , < Q h.a . * - @ @ @ @ - - - - - - - ",
"- @ @ @ @ o @ @ @ @ o % , , Q Q , , < # @ @ @ @ @ @ @ - - # ; # - - # @ @ o @ @ @ @ @ o # , , < Q Q < . + @ @ @ @ - - - - - - - ",
"- @ @ @ @ @ o o @ @ @ = < 1 L < , . $ @ @ - @ @ @ # - - @ - ; @ - @ @ @ @ @ o o O @ o @ @ O & . < L 3 , = - @ @ @ @ - @ - - @ @ ",
"@ @ @ @ @ @ @ @ o o o & . . . . * + @ @ @ o @ @ @ @ @ - @ @ - @ @ @ @ @ o @ o o @ o @ @ @ @ + * < . < . = o @ @ @ @ @ @ @ - @ - ",
"- @ @ @ @ @ o o @ @ @ = , < , , @ o o @ @ @ @ @ @ @ - @ - - @ - ; @ - @ @ @ o @ X @ @ @ @ @ X @ * . . < = - o @ @ @ - # - @ @ @ ",
"- @ ; @ @ @ @ @ o @ @ = < . * $ o o o o @ o @ @ @ - # @ @ @ @ @ - @ @ @ @ @ @ o @ @ @ @ @ @ o @ O * . < & o @ @ - - @ - - @ @ - ",
"@ - - - @ @ @ o @ X @ + . , @ o o o o o @ @ @ @ @ @ @ @ - @ @ @ @ ; - - @ @ @ @ X @ X @ @ X @ o X O . . + @ @ o @ @ - @ @ @ @ @ "
};
