/* XPM */
static char *_391445438b04b2ae20c9396e7bd965bvKyYiSkmQQfDc9Ay[] = {
/* columns rows colors chars-per-pixel */
"64 64 152 2 ",
"   c #1F1C1C",
".  c #221E1E",
"X  c #0D0126",
"o  c #0F0228",
"O  c #120726",
"+  c #150B27",
"@  c #13022C",
"#  c #18052F",
"$  c #160A2A",
"%  c #190D2A",
"&  c #1B1426",
"*  c #1F1924",
"=  c #1B1229",
"-  c #170330",
";  c #180331",
":  c #120B30",
">  c #181737",
",  c #221E21",
"<  c #242123",
"1  c #292424",
"2  c #2F2920",
"3  c #25252A",
"4  c #292628",
"5  c #26282E",
"6  c #2D2B2D",
"7  c #302426",
"8  c #312B20",
"9  c #352629",
"0  c #3C292C",
"q  c #3C3320",
"w  c #272B33",
"e  c #2A2E35",
"r  c #282F39",
"t  c #302E30",
"y  c #29323D",
"u  c #323134",
"i  c #36373B",
"p  c #38373A",
"a  c #3A3A3C",
"s  c #422C2F",
"d  c #413720",
"f  c #432C30",
"g  c #4B2F33",
"h  c #513237",
"j  c #573439",
"k  c #4E4221",
"l  c #625321",
"z  c #6D5B21",
"x  c #756221",
"c  c #2B3643",
"v  c #2B3846",
"b  c #2C3B4C",
"n  c #3E3F42",
"m  c #2E3F51",
"M  c #673B41",
"N  c #683C42",
"B  c #3F4146",
"V  c #2F4256",
"C  c #2F4459",
"Z  c #30465D",
"A  c #2D4968",
"S  c #314B64",
"D  c #324E69",
"F  c #34526E",
"G  c #345574",
"H  c #365877",
"J  c #365A7B",
"K  c #424347",
"L  c #444548",
"P  c #494B4F",
"I  c #4C4F53",
"U  c #4D5155",
"Y  c #52565B",
"T  c #54585D",
"R  c #515A65",
"E  c #61676C",
"W  c #656C72",
"Q  c #616E7D",
"!  c #697177",
"~  c #6C757B",
"^  c #6F787E",
"/  c #70797F",
"(  c #836E21",
")  c #887221",
"_  c #947B22",
"`  c #884951",
"'  c #A95762",
"]  c #AA5762",
"[  c #B85D69",
"{  c #C2616E",
"}  c #D76978",
"|  c #D86A79",
" . c #A18622",
".. c #A38822",
"X. c #A88C22",
"o. c #AE9022",
"O. c #D1AD22",
"+. c #D8B323",
"@. c #EDC423",
"#. c #F1C723",
"$. c #FED323",
"%. c #365C80",
"&. c #385F82",
"*. c #396186",
"=. c #3A658C",
"-. c #3A668D",
";. c #3B678F",
":. c #667484",
">. c #6C7C8E",
",. c #717A81",
"<. c #EB7182",
"1. c #FF7D8F",
"2. c #768187",
"3. c #778188",
"4. c #79848A",
"5. c #7C888F",
"6. c #728396",
"7. c #7E8991",
"8. c #76889C",
"9. c #828F96",
"0. c #849199",
"q. c #89979F",
"w. c #89989F",
"e. c #8B99A1",
"r. c #8B99A2",
"t. c #879EB5",
"y. c #92A1AA",
"u. c #8AA2BB",
"i. c #97A8B1",
"p. c #98A9B2",
"a. c #9AABB4",
"s. c #A1B3BD",
"d. c #9EBCD9",
"f. c #A1BEDB",
"g. c #ADC1CC",
"h. c #B4CAD4",
"j. c #B9CFDB",
"k. c #BAD1DC",
"l. c #AACBEA",
"z. c #BFD6E1",
"x. c #C0D7E3",
"c. c #C2DAE6",
"v. c #C5DDE9",
"b. c #C8E1ED",
"n. c #CCE5F2",
"m. c #CCE6F2",
"M. c #CFE9F5",
"N. c #D0EBF7",
"B. c #D4EFFC",
"V. c #D6F1FE",
"C. c #D8F3FF",
"Z. c #D9F4FF",
/* pixels */
"@ @ @ @ @ - @ @ @ @ @ $ , * O X X @ o @ @ X X @ @ @ @ @ @ - - @ @ @ @ @ @ @ @ @ @ @ @ @ o X X @ X O , , + X @ o @ @ @ @ # - @ # ",
"@ @ @ - @ - - @ @ @ o & , . * + @ o @ @ @ @ @ @ X @ # @ @ - - - @ @ @ @ - - - @ @ @ X @ @ o o X $ * . , = @ o o o @ @ @ @ ; @ - ",
"@ @ @ - - @ - @ @ o @ = < . , * $ o @ @ @ @ @ X @ o @ @ @ - @ @ - @ - # @ - - o @ @ @ @ o o o @ , < < . = @ @ X o o @ @ @ @ @ - ",
"- # - @ @ - @ @ @ @ @ = . < . . * @ o o @ @ @ o o o @ @ @ @ @ @ - @ @ - - @ - @ @ @ @ @ @ @ $ * , . . , = @ @ @ o @ @ @ @ @ @ @ ",
"@ @ - @ - - @ @ @ @ @ & . 4 P < , , $ @ @ @ o @ o @ @ @ @ @ @ # @ - - ; @ - @ @ @ @ @ @ @ # , . < P 4 . = @ @ X @ o o @ @ @ @ - ",
"- ; - ; ; @ @ @ @ @ @ % < . ~ ! , . , # o o @ @ o @ o @ # @ # - ; - - - - - @ @ @ @ @ @ # , , , ~ ~ . , + @ @ @ @ o @ @ @ ; - ; ",
"; - - @ - - # @ @ @ @ @ * . a g.~ < , * $ @ - @ @ $ = , * , , , * * , , , * % @ @ @ @ $ , , , / g.p . * @ @ @ @ @ @ @ @ @ - - ; ",
"; - - # @ - @ @ @ @ @ @ % < . 4.n.~ , , , $ @ % = , . . . . * *   * , , , < , = $ @ # , , , ,.n.2.. , % @ # # @ @ @ @ @ @ - - ; ",
"- @ @ @ @ @ @ @ @ @ o @ @ * . p k.n.~ , , * * * . . < < . 8 z x x x d < . < . . , * , . , / n.k.p . * @ @ @ @ - @ @ @ o @ @ @ @ ",
"@ @ @ @ @ @ @ @ @ @ @ @ @ % . . 4.V.n.,.3 , . . < y F b . 1 o.$.$.+.q . r D v < . < , < / n.Z.,.  . % @ @ @ - @ @ @ @ @ @ @ @ @ ",
"@ o @ o @ @ @ @ @ @ @ @ @ @ * . g z.C.n.W   < y D *.;.J w . d O.O.x < < D =.-.F c , . W n.Z.j.a . * @ o @ @ @ - @ @ @ @ @ @ @ @ ",
"@ @ o @ @ @ @ @ @ @ @ @ @ @ % . , ,.C.C.w.. 3 H =.=.=.=.C . . 2 2 < . c *.-.*.-.H 3 . r.C.B.4.. , = @ @ @ @ @ @ @ @ o o o @ @ @ ",
"o O @ O + $ # # - - - - @ @ # , . a j.C.w.. 3 J =.;.-.-.*.y . < . . 5 H -.-.-.-.H < . r.Z.j.a , * @ - @ @ @ @ @ @ + + O O @ @ X ",
"& * , , * , * * - ; ; ; # @ - % , . 5.C.w.  3 H =.;.=.=.-.J S S S S G -.-.-.-.-.J 3 . r.C.4., , = - @ - @ @ @ @ & < * . , , , = ",
"* . <   * , < , % - ; ; ; ; - - , , a k.r.. 3 H -.=.=.=.-.-.;.;.=.;.-.-.-.-.*.-.H 3 . r.k.a . , - - - - @ @ @ + < , , *   * . * ",
"* * q ) _ l , , , = = % % # ; ; % , . 9.r.. 3 H -.=.=.-.-.;.=.;.=.;.-.-.-.-.-.-.H 3 . r.7.. , % - - - $ % = & * . < l _ ) q . * ",
"* * k #.$.... . . . , . , , * & = < . n ^ . 3 H =.;.*.J *.J J J &.J J &.J %.;.=.H 3 . / n . , = * * , , , . . . < .  .$.#.k , * ",
"* . k @.$.... 3 L a 6 < .     . * < . < p < 3 H =.G y 5 5 5 5 5 5 5 5 5 5 r F =.H 3 < p < < , . , .   , < 6 a L < ,  .$.@.k   * ",
"* . k @.$.... t g.z.g.i.7.W I a 6 <   . . < 3 H G w . . . . . . . . . . , . 3 D H 3 . < . . < 6 a U W 7.p.g.c.g.t ,  .$.#.k , * ",
"* * k @.$.... t h.V.V.V.V.V.n.z.g.i.^ 3 . . 3 C 5 . < v C V V V V V V V b 3 . 3 V < . . 4 ~ a.g.x.n.B.V.V.V.Z.h.t .  .$.@.k * * ",
"* * k @.$. .  e h.V.B.B.B.B.B.V.V.V.n.Y . < . < . < V -.;.;.=.;.=.;.=.;.=.S 4 . , . . . Y n.Z.V.V.B.B.B.B.B.V.h.t .  .$.@.k   * ",
"* , k @.$.... 6 h.V.B.B.B.B.B.B.V.V.Z.i.1 . < . < S -.-.-.=.=.=.=.=.-.-.=.=.D 3 , < . 4 p.V.B.B.B.B.B.B.B.B.V.h.t *  .$.@.k * * ",
"* . k @.$. .. u h.V.B.B.B.B.B.B.N.V.V.b.Y . . 3 D -.-.*.-.-.=.=.-.*.-.-.=.=.=.F 5 . . Y n.V.B.V.B.B.B.B.B.B.V.h.t . ..$.@.k , * ",
"* . k @.$. .. 6 h.V.B.V.V.B.B.B.N.V.V.Z.9.. < D -.-.-.-.-.-.=.=.-.-.-.-.=.=.=.=.D < . 0.V.B.B.V.B.B.B.V.V.B.V.h.t   ..$.@.k , * ",
"* . k @.$. .  t h.Z.M.h.b.V.V.B.V.V.V.V.w.. 3 J =.=.=.=.=.=.=.=.-.-.=.=.=.=.=.=.H 3 . r.V.V.V.N.V.V.Z.z.k.N.V.h.t .  .$.@.k , * ",
"* * k @.$..., e h.Z.i.u U g.V.B.V.N.V.V.w.. < H =.=.=.=.=.=.=.=.=.*.=.=.=.=.=.=.H 3 . w.V.B.V.N.V.V.p.L a g.Z.h.t ,  .$.@.k , * ",
"* . k @.$.... t h.Z.3.    p y.N.V.M.V.V.w.. 3 J =.=.=.=.=.=.=.=.=.=.=.=.=.=.=.=.J 3 . w.Z.V.V.V.n.7.t   . y.Z.h.t    .$.@.k * * ",
"* . k @.$..., < ! c.4.  < . 4 2.b.V.V.V.w.. 3 H ;.=.=.=.=.=.=.=.=.=.=.=.=.=.;.;.H 3 . r.Z.N.V.z.W < . . . y.b.! < .  .$.@.k . * ",
"*   k #.$.( * . . U Y . 1 9 . . ! M.V.V.w.. 3 F J *.*.=.=.=.=.=.=.=.-.-.=.*.J *.F 3 . r.Z.B.v.T   . 0 < < ! U . . . x $.#.k , * ",
"* , q X. .8 , , . . , , f [ h . B c.V.V.w.. < 3 5 3 v *.;.=.=.=.=.*.-.-.*.b 5 5 3 < . w.C.V.h.6 . N [ 7 , <   . < < 8  .X.q . * ",
"* , , < * . , % & * . . s <.`   n c.V.V.w.. . . . . . b *.=.=.=.=.=.-.*.m . , . . < . r.V.V.h.6 . ] } 2 . . , & & * , . . < , * ",
"& , , , . , & o @ & , . s <.` . n c.V.Z.w.. < b y < < . C =.=.=.=.=.-.V < , . y b < . r.Z.V.h.t . ] } 4 < * + o @ & , , , < , & ",
"- $ % % % $ @ @ @ @ &   0 <.`   K v.V.C.q.. 3 H Z , , . < D =.=.=.=.S < . < . Z J 3 . r.Z.V.h.6 . ] } 7 . & o o @ @ $ $ % % % ; ",
"@ o @ # - @ - @ @ o * < f <.`   t s.B.Z.q.. 3 J Z . < 4 . 3 F =.-.G 3 . 6 < . Z H 3 . r.Z.V.a.4 . ] } 7 . = o o o @ - @ @ - - - ",
"- @ @ - - @ - @ @ @ *   f <.` . . u 0.M.r.. 3 J Z . 6 >.e . w H J e . 6 >.u . V G 3 . r.M.9.u . . ' | 7 , = @ @ o o @ @ @ @ @ - ",
"@ # - @ @ - @ @ @ @ & < 9 { `   . . < E ^ . < J S < 1 8.8.1 . y y . 1 6.8.< . S J 3 . ,.E < . . . ] ] 1 . = o o @ o @ @ @ @ @ @ ",
"@ @ - - - @ @ @ @ @ = , , 0 g . , , , . 4 . 4 J *.y . n d.:., , . . Q f.L . w &.J < , 3 , , , , < h 9 . , % @ o o o @ o @ @ - @ ",
"- - - - - - - @ @ @ @ = , , , < , % * , , , 3 J =.S . . >.l.R . . R l.>., < S =.G 3 , < , * % , . . , , & @ @ @ @ @ o @ @ - - - ",
"; - - - - @ @ @ @ @ @ @ = * , , , $ @ = . , < F =.*.y . i d.u.< < t.l.i . y &.=.D < , , = @ $ , < , , $ o @ - @ @ @ @ @ @ - - ; ",
"- @ - # - @ - @ @ o @ @ - $ , , * @ @ @ % . . y *.=.D . . :.u.4 < t.:.. , D =.*.y , , % @ - # , . * $ @ @ @ @ - @ @ @ @ @ - - ; ",
"- @ - @ @ @ @ @ @ @ o o @ - @ = $ @ @ @ @ = , , S =.=.c . t >.1 1 >.i . c *.=.S . , & @ @ @ @ % % @ @ @ @ @ - @ @ @ @ @ @ @ - - ",
"@ @ @ @ o @ @ @ @ @ @ @ o @ - @ @ o o @ o $ , . e &.=.G 1 , i 1 < i , < G =.&.y . , $ @ @ @ @ @ @ @ o o o @ - - @ @ @ o o @ @ @ ",
"@ o @ @ @ @ @ - @ @ @ @ @ @ o @ @ @ @ @ o @ = , , Z =.=.b . , , , , , v *.=.Z , . = @ @ @ @ @ @ @ @ o @ o @ - @ @ @ @ @ @ @ @ @ ",
"@ o o o o @ - @ @ @ @ @ @ @ @ @ @ @ @ @ @ @ # , , w %.=.J 3 . , . , < G =.&.e , , $ @ @ @ @ @ @ @ @ @ @ - @ @ @ @ @ @ o o @ o @ ",
"o o o @ @ o - @ - - - - @ @ @ - - @ @ - @ @ @ % , , Z -.=.b . . < . b *.=.V , , % - - @ @ - @ @ - @ - @ @ @ @ @ @ o @ o o o o o ",
"o o @ @ @ @ @ - - - - ; - - - - - @ - @ @ @ @ # , . 5 &.;.J 5 . , 4 J -.*.r , , # ; ; ; - - - @ - @ @ - @ @ @ @ @ @ @ o o @ @ o ",
"@ @ @ o @ @ - - - - ; ; - - ; - - - - - @ @ o @ = . 3 G ;.=.C , . V -.-.*.V , % - ; ; ; ; ; ; - - - - - @ @ @ @ @ @ @ @ @ o @ o ",
"@ @ @ o o o @ @ @ - - - - - - ; - - - @ @ @ @ @ % , . D ;.=.J b c *.-.-.=.J > ; @ @ - - - ; ; ; - - - @ @ @ @ @ @ @ o @ @ @ @ @ ",
"@ @ o o X o @ @ @ @ @ @ @ ; - - - - @ @ @ @ @ @ # , . b =.-.-.*.=.=.=.=.&.G : @ @ @ @ - @ # - - - - @ @ @ o @ @ @ @ o @ @ @ @ @ ",
"@ @ @ o X o o @ @ @ @ @ @ @ @ @ @ - - @ @ @ @ @ @ * . y *.-.-.-.=.=.=.=.m 5 + o @ - @ @ @ @ @ @ - - - @ - @ @ @ @ o @ @ @ @ o o ",
"@ @ @ X X o o o @ @ @ @ o @ @ @ @ - @ @ - - @ @ @ & . 5 J -.-.;.=.=.=.J 5 * & o @ @ @ @ @ @ @ o o - - @ - @ @ @ @ @ o @ @ @ - o ",
"@ @ @ o o o o @ o @ @ o o @ @ @ @ @ @ @ @ @ @ @ @ = , < F -.-.;.=.=.=.=.S & @ o o @ @ o o o @ o @ @ o - @ - @ @ @ @ o @ o @ - - ",
"@ @ @ @ @ @ o o o @ @ o X o o o @ o @ @ - @ @ @ @ O , . Z =.;.=.=.=.=.=.%.> o o o @ o o X o o o o @ @ @ @ @ @ @ @ @ o @ @ @ - - ",
"@ @ @ @ o @ o @ o @ @ @ X X X X o o @ @ - @ @ @ @ O , . v =.=.=.=.=.=.*.A @ o o @ @ @ @ o X X X o o @ @ - @ @ @ o @ o @ @ - - @ ",
"@ @ @ @ o @ @ o @ @ @ o o o X @ o @ @ @ @ @ @ @ @ X * . y J G D D F *.b , % @ o o @ @ @ X o X O o o @ @ @ @ @ @ @ o o @ o @ @ - ",
"@ @ @ @ @ @ @ o o @ @ o o X X $ X X o @ @ @ @ @ @ @ = . < r < , < < y < . = @ o @ @ @ o X X X o o X o @ @ @ @ @ @ @ @ @ @ @ @ @ ",
"@ @ @ - @ @ o @ @ @ @ o o X X X X X X @ @ @ @ - @ @ % , < . . < < . . . . % @ @ @ @ @ o o X X X X X o o @ @ @ @ - @ @ @ @ @ @ @ ",
"o @ @ @ @ @ @ @ @ @ @ o o X X X X X X o @ @ @ - @ @ $ , . , N { { M < , , $ @ o @ @ o o o X X X X X o @ @ @ - - - @ o @ @ o o @ ",
"@ o o @ @ @ @ o @ @ @ X X X X X X X X @ @ @ @ @ - @ $ * . 1 ' 1.1.' < , * @ @ o @ @ o o o o X X X X X o @ @ @ - @ @ @ @ @ o @ @ ",
"@ o @ @ @ @ @ @ @ @ o o X X X X X X X X @ o @ @ @ @ @ $ , . f } } s . , % @ @ @ @ @ @ o X X o X X X X o @ o @ @ - o @ @ @ o @ @ ",
"o @ o @ @ @ @ @ @ @ o o X X X X X X X @ o o @ @ - @ @ @ = ,   j j . , % @ @ @ @ @ @ o o X X X X X X X X o o @ - - @ @ @ o o @ @ ",
"@ @ @ @ @ @ @ @ @ @ o X X X X X X X X X o o o @ @ @ @ @ @ & < . . , * @ @ @ @ @ @ o o o X X X X X X X X o o o @ @ - @ o @ @ @ @ ",
"- @ @ - @ @ @ @ @ o o X X X X X X X X X @ o X @ @ @ @ @ @ # * , , * $ @ @ @ @ @ @ @ o X X X o X X o X o o o o o o @ @ @ @ @ - @ ",
"@ o @ o @ - @ o @ @ X X X X X X o X o @ o o @ @ - @ @ @ @ - $ , , $ @ @ @ @ @ @ @ o o X X X X o X o o o @ o o o - @ - @ @ - @ - "
};
